<?xml version="1.0" encoding="utf-8"?>
<!-- Generator: Adobe Illustrator 16.0.0, SVG Export Plug-In . SVG Version: 6.00 Build 0)  -->
<!DOCTYPE svg PUBLIC "-//W3C//DTD SVG 1.0//EN" "http://www.w3.org/TR/2001/REC-SVG-20010904/DTD/svg10.dtd">
<svg version="1.0" xmlns="http://www.w3.org/2000/svg" xmlns:xlink="http://www.w3.org/1999/xlink" x="0px" y="0px"
	 width="595.276px" height="66.957px" viewBox="0 0 595.276 66.957" enable-background="new 0 0 595.276 66.957"
	 xml:space="preserve">
<g id="Layer_1">
	<g>
		<defs>
			<path id="SVGID_1_" d="M595.276,46.831c0,3.959-1.358,7.169-7.925,7.169H7.635C1.068,54,0,50.79,0,46.831V7.169
				C0,3.21,1.068,0,7.635,0h579.717c6.566,0,7.925,3.21,7.925,7.169V46.831z"/>
		</defs>
		<clipPath id="SVGID_2_">
			<use xlink:href="#SVGID_1_"  overflow="visible"/>
		</clipPath>
		<rect clip-path="url(#SVGID_2_)" fill="#CED4DC" width="595.276" height="54"/>
		<rect clip-path="url(#SVGID_2_)" fill="#0A2850" width="34.021" height="54"/>
	</g>
	<g>
		<path fill="#CED4DC" d="M449.205,58.714c1.247,0,2.13,0.936,2.13,2.121c0,1.559-1.097,2.023-2.005,2.023
			c-0.713,0-1.516-0.018-1.738-0.018c-0.312,0-0.686,0.027-0.686,0.027l-0.01-0.027c0.081-0.481,0.09-0.936,0.09-1.595v-0.909
			c0-0.633-0.009-1.114-0.09-1.595l0.01-0.027c0,0,0.374,0.027,0.686,0.027C448.037,58.732,448.974,58.714,449.205,58.714z
			 M448.866,62.502c0.873,0,1.186-0.268,1.186-1.515c0-0.927-0.151-1.916-1.354-1.916c-0.348,0-0.481,0.071-0.481,0.294v2.735
			C448.216,62.35,448.261,62.502,448.866,62.502z"/>
		<path fill="#CED4DC" d="M454.667,61.058c0,0.668,0.035,1.274,0.106,1.782l-0.018,0.027c-0.125-0.009-0.463-0.027-0.704-0.027
			c-0.24,0-0.579,0.018-0.713,0.027l-0.009-0.027c0.08-0.481,0.107-1.114,0.107-1.782v-0.535c0-0.668-0.027-1.274-0.107-1.782
			l0.018-0.027c0.143,0.009,0.438,0.027,0.704,0.027c0.276,0,0.57-0.018,0.713-0.027l0.009,0.027
			c-0.08,0.481-0.106,1.114-0.106,1.782V61.058z"/>
		<path fill="#CED4DC" d="M457.285,62.867c-0.08-0.018-0.312-0.027-0.383-0.027s-0.365,0.009-0.445,0.027
			c0.65-1.417,1.274-2.789,1.889-4.215h0.847c0.553,1.408,1.435,3.564,1.756,4.215c-0.107-0.018-0.713-0.027-0.82-0.027
			c-0.106,0-0.463,0.009-0.57,0.027c-0.026-0.143-0.16-0.57-0.437-1.301c-0.249-0.018-0.419-0.018-0.677-0.018
			c-0.232,0-0.473,0.009-0.713,0.018C457.535,62.065,457.365,62.546,457.285,62.867z M458.471,59.953h-0.045
			c-0.133,0.276-0.338,0.722-0.534,1.203c0.196,0.018,0.32,0.018,0.525,0.018c0.214,0,0.33-0.018,0.553-0.018
			C458.827,60.809,458.667,60.408,458.471,59.953z"/>
		<path fill="#CED4DC" d="M464.155,58.652c0.437,0.891,0.811,1.622,1.257,2.459l0.035,0.018l1.346-2.477h0.998
			c0.16,1.542,0.303,2.825,0.499,4.206c-0.098-0.018-0.562-0.018-0.659-0.018c-0.099,0-0.606,0-0.704,0.018
			c-0.08-1.016-0.16-1.952-0.276-2.914c-0.517,0.944-1.024,1.871-1.479,2.896h-0.223c-0.445-0.936-0.944-1.907-1.452-2.887
			c-0.116,0.989-0.259,2.272-0.268,2.905c-0.063-0.018-0.268-0.018-0.339-0.018s-0.339,0-0.409,0.018
			c0.213-1.337,0.454-2.932,0.588-4.206H464.155z"/>
		<path fill="#CED4DC" d="M472.389,58.652c1.506,0,2.281,0.944,2.281,2.147c0,1.319-0.936,2.13-2.299,2.13
			c-1.328,0-2.299-0.775-2.299-2.041C470.072,59.41,471.114,58.643,472.389,58.652z M471.391,60.71c0,0.731,0.179,1.747,1.105,1.747
			c0.4,0,0.855-0.348,0.855-1.443c0-1.328-0.268-1.88-1.025-1.88C471.561,59.133,471.391,59.882,471.391,60.71z"/>
		<path fill="#CED4DC" d="M476.566,58.741l0.009-0.018c0,0,0.294,0.018,0.517,0.018c0.134,0,0.58-0.018,0.58-0.018l2.094,2.718
			v-1.426c0-0.481-0.009-0.909-0.063-1.274l0.018-0.018c0,0,0.223,0.018,0.384,0.018c0.143,0,0.348-0.018,0.348-0.018v0.018
			c-0.045,0.339-0.063,0.793-0.063,1.274v2.852c-0.134-0.018-0.339-0.027-0.428-0.027c-0.099,0-0.365,0.018-0.473,0.027
			l-2.236-2.825v1.524c0,0.481,0.009,0.909,0.063,1.274l-0.009,0.027c0,0-0.196-0.027-0.348-0.027c-0.143,0-0.384,0.027-0.384,0.027
			l-0.009-0.027c0.054-0.338,0.063-0.793,0.063-1.274v-1.55C476.629,59.534,476.62,59.106,476.566,58.741z"/>
		<path fill="#CED4DC" d="M484.996,58.714c1.247,0,2.13,0.936,2.13,2.121c0,1.559-1.097,2.023-2.005,2.023
			c-0.713,0-1.516-0.018-1.738-0.018c-0.312,0-0.686,0.027-0.686,0.027l-0.01-0.027c0.081-0.481,0.09-0.936,0.09-1.595v-0.909
			c0-0.633-0.009-1.114-0.09-1.595l0.01-0.027c0,0,0.374,0.027,0.686,0.027C483.828,58.732,484.765,58.714,484.996,58.714z
			 M484.657,62.502c0.873,0,1.186-0.268,1.186-1.515c0-0.927-0.151-1.916-1.354-1.916c-0.348,0-0.481,0.071-0.481,0.294v2.735
			C484.007,62.35,484.052,62.502,484.657,62.502z"/>
		<path fill="#CED4DC" d="M494.333,58.652c1.506,0,2.281,0.944,2.281,2.147c0,1.319-0.936,2.13-2.299,2.13
			c-1.328,0-2.299-0.775-2.299-2.041C492.017,59.41,493.059,58.643,494.333,58.652z M493.335,60.71c0,0.731,0.179,1.747,1.105,1.747
			c0.4,0,0.855-0.348,0.855-1.443c0-1.328-0.268-1.88-1.025-1.88C493.505,59.133,493.335,59.882,493.335,60.71z"/>
		<path fill="#CED4DC" d="M500.009,62.84l-0.018,0.027c-0.169-0.009-0.419-0.027-0.687-0.027s-0.534,0.018-0.695,0.027l-0.009-0.027
			c0.081-0.481,0.09-0.936,0.09-1.595v-0.909c0-0.633-0.009-1.114-0.09-1.595l0.019-0.027c0.169,0.018,0.409,0.027,0.677,0.027
			c0.259,0,1.149-0.027,1.551-0.027c1.266,0,1.497,0.651,1.497,1.114c0,0.535-0.259,1.479-1.523,1.479
			c-0.33,0-0.723-0.044-0.9-0.089v0.143C499.92,62.029,499.929,62.333,500.009,62.84z M499.92,60.88
			c0.169,0.044,0.24,0.054,0.419,0.054c0.534,0,0.767-0.33,0.767-1.016c0-0.766-0.321-0.829-0.812-0.829
			c-0.125,0-0.268,0.026-0.374,0.071V60.88z"/>
		<path fill="#CED4DC" d="M506.95,58.741c0.188,0,0.393-0.009,0.535-0.027l0.018,0.027c-0.009,0.125-0.018,0.231-0.018,0.303
			c0,0.081,0.009,0.143,0.018,0.214l-0.018,0.036c0,0-0.722-0.107-1.916-0.107c-0.063,0.214-0.071,0.98-0.071,1.132v0.169
			c1.052,0,0.953-0.044,1.479-0.089l0.026,0.027c-0.018,0.081-0.026,0.196-0.026,0.276s0.009,0.196,0.026,0.276l-0.026,0.027
			c-0.615-0.063-1.052-0.089-1.479-0.089v0.321c0,0.151,0.009,0.9,0.071,1.114c1.194,0,2.005-0.107,2.005-0.107l0.018,0.036
			c-0.009,0.071-0.018,0.187-0.018,0.276s0.009,0.161,0.018,0.285l-0.018,0.027c-0.143-0.018-0.348-0.027-0.534-0.027h-2.147
			c-0.33,0-0.704,0.027-0.704,0.027l-0.009-0.027c0.08-0.481,0.089-0.936,0.089-1.595v-0.909c0-0.633-0.009-1.114-0.089-1.595
			l0.009-0.027c0,0,0.392,0.027,0.704,0.027H506.95z"/>
		<path fill="#CED4DC" d="M509.756,58.741l0.009-0.018c0,0,0.294,0.018,0.517,0.018c0.134,0,0.58-0.018,0.58-0.018l2.094,2.718
			v-1.426c0-0.481-0.009-0.909-0.063-1.274l0.018-0.018c0,0,0.223,0.018,0.384,0.018c0.143,0,0.348-0.018,0.348-0.018v0.018
			c-0.045,0.339-0.063,0.793-0.063,1.274v2.852c-0.134-0.018-0.339-0.027-0.428-0.027c-0.099,0-0.365,0.018-0.473,0.027
			l-2.236-2.825v1.524c0,0.481,0.009,0.909,0.063,1.274l-0.009,0.027c0,0-0.196-0.027-0.348-0.027c-0.143,0-0.384,0.027-0.384,0.027
			l-0.009-0.027c0.054-0.338,0.063-0.793,0.063-1.274v-1.55C509.818,59.534,509.81,59.106,509.756,58.741z"/>
		<path fill="#CED4DC" d="M519.29,62.867c-0.08-0.018-0.312-0.027-0.383-0.027s-0.365,0.009-0.445,0.027
			c0.65-1.417,1.274-2.789,1.889-4.215h0.847c0.553,1.408,1.435,3.564,1.756,4.215c-0.107-0.018-0.713-0.027-0.82-0.027
			c-0.106,0-0.463,0.009-0.57,0.027c-0.026-0.143-0.16-0.57-0.437-1.301c-0.249-0.018-0.419-0.018-0.677-0.018
			c-0.232,0-0.473,0.009-0.713,0.018C519.54,62.065,519.371,62.546,519.29,62.867z M520.476,59.953h-0.045
			c-0.134,0.276-0.338,0.722-0.534,1.203c0.196,0.018,0.32,0.018,0.525,0.018c0.214,0,0.33-0.018,0.553-0.018
			C520.832,60.809,520.672,60.408,520.476,59.953z"/>
		<path fill="#CED4DC" d="M525.501,60.666c0,0.543,0.124,0.936,0.285,1.212c0.16,0.276,0.579,0.517,0.837,0.517
			c0.356,0,0.82-0.071,1.069-0.392h0.143c0,0.151,0.027,0.33,0.045,0.418c-0.401,0.366-0.749,0.517-1.426,0.517
			c-0.668,0-1.346-0.241-1.666-0.615c-0.304-0.347-0.526-0.811-0.526-1.408c0-1.497,1.061-2.263,2.255-2.263
			c0.695,0,1.141,0.169,1.417,0.32L527.951,59l-0.214,0.927l-0.249,0.009c-0.196-0.526-0.643-0.793-0.98-0.793
			C525.92,59.142,525.501,59.695,525.501,60.666z"/>
		<path fill="#CED4DC" d="M530.811,60.666c0,0.543,0.124,0.936,0.285,1.212c0.16,0.276,0.579,0.517,0.837,0.517
			c0.356,0,0.82-0.071,1.069-0.392h0.143c0,0.151,0.027,0.33,0.045,0.418c-0.401,0.366-0.748,0.517-1.426,0.517
			c-0.668,0-1.346-0.241-1.666-0.615c-0.304-0.347-0.526-0.811-0.526-1.408c0-1.497,1.061-2.263,2.255-2.263
			c0.695,0,1.141,0.169,1.417,0.32L533.261,59l-0.214,0.927l-0.25,0.009c-0.195-0.526-0.641-0.793-0.979-0.793
			C531.229,59.142,530.811,59.695,530.811,60.666z"/>
		<path fill="#CED4DC" d="M537.956,58.741c0.188,0,0.393-0.009,0.535-0.027l0.018,0.027c-0.009,0.125-0.018,0.231-0.018,0.303
			c0,0.081,0.009,0.143,0.018,0.214l-0.018,0.036c0,0-0.722-0.107-1.916-0.107c-0.063,0.214-0.071,0.98-0.071,1.132v0.169
			c1.052,0,0.953-0.044,1.479-0.089l0.026,0.027c-0.018,0.081-0.026,0.196-0.026,0.276s0.009,0.196,0.026,0.276l-0.026,0.027
			c-0.615-0.063-1.052-0.089-1.479-0.089v0.321c0,0.151,0.009,0.9,0.071,1.114c1.194,0,2.005-0.107,2.005-0.107l0.018,0.036
			c-0.009,0.071-0.018,0.187-0.018,0.276s0.009,0.161,0.018,0.285l-0.018,0.027c-0.143-0.018-0.348-0.027-0.534-0.027h-2.147
			c-0.33,0-0.704,0.027-0.704,0.027l-0.009-0.027c0.08-0.481,0.089-0.936,0.089-1.595v-0.909c0-0.633-0.009-1.114-0.089-1.595
			l0.009-0.027c0,0,0.392,0.027,0.704,0.027H537.956z"/>
		<path fill="#CED4DC" d="M540.977,61.753c0.285,0.553,0.678,0.802,1.007,0.802c0.428,0,0.704-0.232,0.704-0.695
			c0-0.383-0.268-0.58-0.784-0.775c-0.713-0.276-1.257-0.544-1.257-1.31c0-0.749,0.713-1.123,1.604-1.123
			c0.454,0,1.177,0.16,1.435,0.303l0.018,0.027l-0.195,0.811l-0.25,0.009c-0.125-0.268-0.508-0.775-0.971-0.775
			c-0.446,0-0.615,0.285-0.615,0.606c0,0.303,0.231,0.562,0.624,0.668c0.757,0.205,1.487,0.562,1.487,1.372
			c0,0.66-0.534,1.257-1.764,1.257c-0.339,0-0.972-0.081-1.479-0.268l0.151-0.9L540.977,61.753z"/>
		<path fill="#CED4DC" d="M545.895,61.753c0.285,0.553,0.678,0.802,1.007,0.802c0.428,0,0.704-0.232,0.704-0.695
			c0-0.383-0.268-0.58-0.784-0.775c-0.713-0.276-1.257-0.544-1.257-1.31c0-0.749,0.713-1.123,1.604-1.123
			c0.454,0,1.177,0.16,1.435,0.303l0.018,0.027l-0.195,0.811l-0.25,0.009c-0.125-0.268-0.508-0.775-0.971-0.775
			c-0.446,0-0.615,0.285-0.615,0.606c0,0.303,0.231,0.562,0.624,0.668c0.757,0.205,1.487,0.562,1.487,1.372
			c0,0.66-0.534,1.257-1.764,1.257c-0.339,0-0.972-0.081-1.479-0.268l0.151-0.9L545.895,61.753z"/>
	</g>
	<g>
		<path fill="#0A2850" d="M53.205,11.078v4.524c0,0.366-0.032,0.691-0.095,0.976s-0.159,0.525-0.286,0.72
			c-0.127,0.195-0.239,0.346-0.336,0.454c-0.097,0.107-0.225,0.226-0.384,0.356c-0.489,0.418-1.035,0.627-1.636,0.627
			c-0.201,0-0.426-0.072-0.678-0.216c-0.251-0.145-0.377-0.327-0.377-0.549c0-0.144,0.076-0.281,0.227-0.411
			c0.151-0.13,0.283-0.195,0.396-0.195c0.102,0,0.19,0.018,0.266,0.053s0.127,0.073,0.156,0.114c0.028,0.04,0.064,0.097,0.108,0.168
			c0.044,0.072,0.077,0.122,0.098,0.15c0.13,0.165,0.295,0.248,0.496,0.248c0.123,0,0.217-0.023,0.282-0.069
			c0.065-0.045,0.118-0.157,0.158-0.335c0.041-0.177,0.066-0.4,0.077-0.669c0.01-0.269,0.016-0.664,0.016-1.184v-4.762
			c0-0.433-0.061-0.701-0.184-0.804s-0.409-0.163-0.861-0.177c-0.028-0.035-0.042-0.097-0.042-0.185s0.014-0.149,0.042-0.185
			c0.719,0.014,1.316,0.021,1.79,0.021c0.358,0,0.89-0.007,1.596-0.021c0.028,0.035,0.042,0.096,0.042,0.182
			c0,0.086-0.014,0.148-0.042,0.187c-0.342,0.014-0.566,0.075-0.671,0.182C53.257,10.386,53.205,10.652,53.205,11.078z"/>
		<path fill="#0A2850" d="M54.592,14.48c0-0.721,0.197-1.308,0.59-1.762c0.464-0.535,1.127-0.8,1.988-0.796
			c0.784,0,1.409,0.23,1.875,0.691c0.466,0.46,0.699,1.051,0.699,1.772c0,0.777-0.246,1.385-0.738,1.824
			c-0.46,0.412-1.076,0.615-1.846,0.612c-0.735,0-1.346-0.215-1.835-0.646C54.836,15.744,54.592,15.179,54.592,14.48z M57,12.354
			c-0.596,0-0.895,0.629-0.895,1.887c0,0.501,0.106,0.984,0.318,1.45c0.212,0.465,0.517,0.698,0.913,0.698
			c0.239,0,0.447-0.128,0.626-0.386c0.179-0.257,0.269-0.681,0.269-1.271c0-0.743-0.112-1.324-0.337-1.745
			C57.669,12.564,57.371,12.354,57,12.354z"/>
		<path fill="#0A2850" d="M65.645,15.28c0,0.31,0.046,0.52,0.137,0.63s0.281,0.18,0.569,0.208c0.042,0.137,0.049,0.253,0.021,0.348
			c-0.612,0.081-1.209,0.199-1.793,0.354c-0.158,0-0.241-0.06-0.248-0.179c-0.018-0.137-0.035-0.295-0.053-0.475
			c-0.328,0.183-0.663,0.337-1.005,0.464s-0.608,0.19-0.798,0.19c-0.918,0-1.376-0.575-1.376-1.725v-1.688
			c0-0.425-0.052-0.7-0.157-0.825c-0.104-0.125-0.295-0.194-0.571-0.208c-0.028-0.028-0.042-0.09-0.042-0.185
			c0-0.095,0.014-0.157,0.042-0.185c0.62,0.014,1.096,0.021,1.427,0.021c0.15,0,0.355-0.007,0.614-0.021
			c0.07,0.07,0.107,0.193,0.111,0.369c0,0.028-0.004,0.118-0.011,0.269c-0.007,0.151-0.011,0.406-0.011,0.765v1.804
			c0,0.345,0.061,0.566,0.183,0.665c0.122,0.098,0.313,0.147,0.574,0.147c0.349,0,0.68-0.097,0.994-0.29
			c-0.003-0.056-0.006-0.111-0.008-0.166c-0.002-0.055-0.003-0.106-0.003-0.156v-2.004c0-0.432-0.046-0.706-0.14-0.82
			s-0.287-0.186-0.583-0.213c-0.035-0.028-0.053-0.09-0.053-0.185c0-0.095,0.017-0.157,0.05-0.185
			c0.62,0.014,1.095,0.021,1.426,0.021c0.137,0,0.343-0.007,0.617-0.021c0.07,0.07,0.107,0.193,0.111,0.369
			c0,0.028-0.004,0.118-0.013,0.269c-0.009,0.151-0.013,0.406-0.013,0.765V15.28z"/>
		<path fill="#0A2850" d="M69.057,13.82v1.577c0,0.433,0.043,0.697,0.129,0.793c0.086,0.097,0.301,0.156,0.646,0.177
			c0.028,0.028,0.043,0.09,0.045,0.185c0.002,0.095-0.013,0.157-0.045,0.185c-0.619-0.014-1.111-0.021-1.477-0.021
			c-0.383,0-0.877,0.007-1.482,0.021c-0.028-0.028-0.042-0.089-0.042-0.182c0-0.093,0.014-0.156,0.042-0.188
			c0.345-0.028,0.561-0.089,0.649-0.182c0.088-0.093,0.132-0.356,0.132-0.789v-2.02c0-0.303-0.043-0.499-0.129-0.588
			c-0.086-0.089-0.277-0.148-0.572-0.176c-0.042-0.13-0.051-0.243-0.026-0.338c0.418-0.042,1.016-0.16,1.793-0.353
			c0.151,0,0.236,0.062,0.253,0.185c0.035,0.352,0.06,0.635,0.074,0.849h0.042c0.482-0.693,0.911-1.037,1.287-1.034
			c0.186,0,0.351,0.064,0.496,0.192c0.144,0.128,0.216,0.265,0.216,0.409c0,0.222-0.063,0.408-0.19,0.559
			c-0.126,0.151-0.271,0.227-0.433,0.227c-0.229,0-0.402-0.06-0.522-0.179c-0.014-0.014-0.034-0.033-0.058-0.058
			c-0.024-0.024-0.044-0.044-0.058-0.058c-0.014-0.014-0.031-0.029-0.053-0.044c-0.021-0.016-0.04-0.027-0.058-0.035
			c-0.018-0.007-0.037-0.01-0.058-0.01c-0.102,0-0.216,0.062-0.343,0.185c-0.084,0.081-0.148,0.175-0.192,0.282
			C69.079,13.497,69.057,13.641,69.057,13.82z"/>
		<path fill="#0A2850" d="M73.698,15.396c0,0.425,0.032,0.688,0.097,0.789c0.065,0.1,0.219,0.161,0.461,0.182
			c0.028,0.028,0.043,0.09,0.045,0.185c0.002,0.095-0.013,0.157-0.045,0.185c-0.619-0.014-1.039-0.021-1.26-0.021
			c-0.383,0-0.877,0.007-1.482,0.021c-0.028-0.028-0.042-0.089-0.042-0.182c0-0.093,0.014-0.156,0.042-0.188
			c0.345-0.028,0.561-0.089,0.649-0.182c0.088-0.093,0.132-0.356,0.132-0.789v-2.02c0-0.303-0.042-0.497-0.124-0.583
			c-0.083-0.086-0.275-0.143-0.578-0.171c-0.042-0.137-0.051-0.253-0.026-0.348c0.612-0.081,1.209-0.198,1.793-0.353
			c0.158,0,0.243,0.062,0.253,0.185c0.032,0.214,0.054,0.446,0.068,0.696c0.858-0.59,1.458-0.884,1.798-0.88
			c0.956,0,1.435,0.575,1.435,1.724v1.688c0,0.44,0.053,0.718,0.158,0.836c0.105,0.118,0.33,0.184,0.675,0.198
			c0.035,0.028,0.053,0.09,0.053,0.185c0,0.095-0.018,0.157-0.053,0.185c-0.619-0.014-1.13-0.021-1.535-0.021
			c-0.274,0-0.714,0.007-1.318,0.021c-0.035-0.028-0.053-0.089-0.053-0.182c0-0.093,0.018-0.156,0.053-0.188
			c0.239-0.014,0.402-0.083,0.488-0.208c0.086-0.125,0.129-0.4,0.129-0.826V13.53c0-0.542-0.251-0.812-0.754-0.812
			c-0.214,0-0.567,0.168-1.06,0.506v0.021V15.396z"/>
		<path fill="#0A2850" d="M81.177,16.193l-0.07,0.005c-0.193,0.151-0.42,0.292-0.683,0.424c-0.263,0.132-0.466,0.198-0.609,0.198
			c-0.97,0-1.456-0.378-1.456-1.136c0-0.381,0.156-0.672,0.468-0.874c0.313-0.202,0.823-0.414,1.53-0.633l0.759-0.236
			c0-0.634-0.072-1.057-0.215-1.269s-0.348-0.318-0.614-0.318c-0.28,0-0.431,0.083-0.452,0.247c-0.007,0.043-0.008,0.09-0.002,0.143
			c0.005,0.052,0.011,0.097,0.018,0.137c0.007,0.039,0.014,0.081,0.021,0.126c0.007,0.044,0.01,0.083,0.01,0.115
			c0,0.136-0.065,0.255-0.195,0.356c-0.13,0.102-0.289,0.153-0.475,0.153c-0.201,0-0.344-0.049-0.43-0.147
			c-0.086-0.099-0.129-0.232-0.129-0.401c0-0.222,0.113-0.425,0.339-0.609s0.491-0.322,0.792-0.414
			c0.302-0.092,0.591-0.137,0.869-0.137c1.257,0,1.886,0.618,1.886,1.854L82.52,15.34c0,0.275,0.022,0.466,0.066,0.57
			c0.044,0.104,0.122,0.157,0.235,0.157c0.172,0,0.323-0.051,0.454-0.154c0.13,0.109,0.195,0.211,0.195,0.307
			c-0.425,0.404-0.901,0.604-1.428,0.601C81.538,16.824,81.25,16.615,81.177,16.193z M81.117,14.361l-0.656,0.207
			c-0.158,0.055-0.286,0.118-0.387,0.189c-0.1,0.072-0.171,0.153-0.213,0.243c-0.042,0.091-0.068,0.171-0.081,0.241
			c-0.013,0.07-0.019,0.165-0.019,0.285c0,0.187,0.05,0.343,0.15,0.466c0.1,0.124,0.258,0.185,0.476,0.185
			c0.164,0,0.408-0.13,0.729-0.392V14.361z"/>
		<path fill="#0A2850" d="M84.429,15.344v-4.73c0-0.358-0.036-0.576-0.108-0.654c-0.072-0.077-0.281-0.13-0.625-0.158
			c-0.056-0.102-0.069-0.216-0.037-0.343c0.893-0.035,1.57-0.13,2.03-0.285c0.116,0,0.174,0.047,0.174,0.143
			c-0.021,0.267-0.032,0.634-0.032,1.102v4.925c0,0.433,0.052,0.708,0.155,0.825c0.104,0.118,0.33,0.184,0.678,0.198
			c0.035,0.028,0.053,0.09,0.053,0.185c0,0.095-0.018,0.157-0.053,0.185c-0.619-0.014-1.13-0.021-1.535-0.021
			c-0.418,0-0.93,0.007-1.534,0.021c-0.035-0.028-0.053-0.089-0.053-0.182c0-0.093,0.018-0.156,0.053-0.188
			c0.344-0.014,0.569-0.08,0.675-0.198C84.376,16.051,84.429,15.776,84.429,15.344z"/>
		<path fill="#0A2850" d="M89.956,14.48c0-0.721,0.197-1.308,0.59-1.762c0.464-0.535,1.127-0.8,1.988-0.796
			c0.784,0,1.409,0.23,1.875,0.691c0.466,0.46,0.699,1.051,0.699,1.772c0,0.777-0.246,1.385-0.738,1.824
			c-0.46,0.412-1.076,0.615-1.846,0.612c-0.735,0-1.346-0.215-1.835-0.646C90.2,15.744,89.956,15.179,89.956,14.48z M92.363,12.354
			c-0.596,0-0.895,0.629-0.895,1.887c0,0.501,0.106,0.984,0.318,1.45c0.212,0.465,0.517,0.698,0.913,0.698
			c0.239,0,0.447-0.128,0.626-0.386c0.179-0.257,0.269-0.681,0.269-1.271c0-0.743-0.112-1.324-0.337-1.745
			C93.033,12.564,92.735,12.354,92.363,12.354z"/>
		<path fill="#0A2850" d="M97.987,15.333c0,0.44,0.052,0.718,0.155,0.836c0.104,0.118,0.33,0.184,0.678,0.198
			c0.035,0.028,0.053,0.09,0.053,0.185c0,0.095-0.018,0.157-0.053,0.185c-0.619-0.014-1.13-0.021-1.535-0.021
			c-0.418,0-0.93,0.007-1.534,0.021c-0.035-0.028-0.053-0.089-0.053-0.182c0-0.093,0.018-0.156,0.053-0.188
			c0.344-0.014,0.569-0.08,0.675-0.198c0.105-0.118,0.158-0.389,0.158-0.814V12.57h-0.543c-0.193,0-0.29-0.037-0.29-0.111v-0.29
			c0-0.095,0.271-0.142,0.812-0.142h0.021v-0.216c0-0.467,0.068-0.854,0.206-1.16s0.324-0.589,0.559-0.849
			c0.39-0.418,0.898-0.627,1.524-0.627c0.515,0,0.894,0.087,1.135,0.261c0.242,0.174,0.362,0.354,0.362,0.541
			c0,0.221-0.057,0.392-0.17,0.511c-0.114,0.12-0.265,0.179-0.454,0.179s-0.352-0.059-0.491-0.176s-0.234-0.269-0.288-0.457
			c-0.042-0.163-0.081-0.274-0.116-0.335c-0.035-0.062-0.097-0.092-0.185-0.092c-0.056,0-0.112,0.012-0.166,0.037
			c-0.055,0.025-0.114,0.076-0.179,0.152c-0.065,0.077-0.122,0.181-0.169,0.312s-0.087,0.313-0.119,0.546s-0.047,0.506-0.047,0.818
			v0.555h1.091c0.145,0,0.216,0.037,0.216,0.111v0.248c0,0.123-0.126,0.185-0.379,0.185h-0.928V15.333z"/>
		<path fill="#0A2850" d="M113.675,15.333c0,0.44,0.052,0.718,0.156,0.836c0.104,0.118,0.33,0.184,0.678,0.198
			c0.035,0.028,0.053,0.09,0.053,0.185c0,0.095-0.018,0.157-0.053,0.185c-0.619-0.014-1.13-0.021-1.535-0.021
			c-0.274,0-0.714,0.007-1.318,0.021c-0.035-0.028-0.053-0.089-0.053-0.182c0-0.093,0.018-0.156,0.053-0.188
			c0.239-0.014,0.401-0.083,0.488-0.208c0.086-0.125,0.129-0.4,0.129-0.826V13.53c0-0.281-0.083-0.487-0.248-0.617
			c-0.166-0.13-0.371-0.195-0.617-0.195c-0.271,0-0.566,0.102-0.886,0.306v2.32c0,0.425,0.041,0.699,0.124,0.82
			c0.083,0.122,0.247,0.189,0.493,0.203c0.035,0.028,0.053,0.09,0.053,0.185c0,0.095-0.018,0.157-0.053,0.185
			c-0.619-0.014-1.058-0.021-1.318-0.021c-0.344,0-0.818,0.007-1.422,0.021c-0.035-0.028-0.054-0.089-0.055-0.182
			c-0.002-0.093,0.017-0.156,0.055-0.188c0.288-0.014,0.479-0.082,0.576-0.203c0.096-0.121,0.145-0.395,0.145-0.82v-4.709
			c0-0.208-0.036-0.335-0.108-0.382c-0.072-0.048-0.276-0.071-0.613-0.071h-1.1c-0.186,0-0.316,0.091-0.39,0.274
			c-0.074,0.183-0.11,0.459-0.11,0.828v4.103c0,0.433,0.058,0.701,0.174,0.804c0.115,0.104,0.372,0.163,0.768,0.177
			c0.026,0.028,0.039,0.09,0.039,0.185c0,0.095-0.013,0.157-0.039,0.185c-0.721-0.014-1.294-0.021-1.72-0.021
			c-0.481,0-1.074,0.007-1.78,0.021c-0.028-0.028-0.042-0.089-0.042-0.182c0-0.093,0.014-0.156,0.042-0.188
			c0.451-0.014,0.738-0.073,0.86-0.177c0.123-0.104,0.184-0.372,0.184-0.804v-4.134c0-0.352-0.038-0.618-0.113-0.799
			s-0.208-0.271-0.398-0.271h-0.527c-0.366,0-0.659,0.086-0.878,0.258c-0.22,0.172-0.384,0.468-0.493,0.886
			c-0.187,0-0.327-0.018-0.422-0.053c0.144-0.619,0.234-1.144,0.269-1.577c0-0.021,0.016-0.032,0.047-0.032
			c0.728,0.057,1.566,0.084,2.515,0.084h1.519h1.545c0.232,0,0.476-0.036,0.73-0.108c0.255-0.072,0.526-0.164,0.815-0.274
			c0.288-0.111,0.45-0.175,0.485-0.192c0.116,0,0.174,0.047,0.174,0.143c-0.021,0.267-0.032,0.634-0.032,1.102v2.172
			c0.791-0.45,1.345-0.673,1.661-0.669c0.995,0,1.492,0.575,1.492,1.724V15.333z"/>
		<path fill="#0A2850" d="M119.315,15.323c0.109,0,0.163,0.111,0.163,0.332c-0.541,0.777-1.224,1.166-2.048,1.166
			c-0.707,0-1.257-0.179-1.65-0.538c-0.461-0.418-0.691-0.988-0.691-1.708c0-0.784,0.243-1.422,0.728-1.914
			c0.485-0.492,1.034-0.738,1.646-0.738c0.389,0,0.719,0.055,0.989,0.166c0.27,0.111,0.472,0.264,0.608,0.459
			c0.136,0.195,0.233,0.397,0.292,0.606c0.059,0.209,0.088,0.438,0.088,0.688c0,0.222-0.105,0.334-0.314,0.337h-2.623
			c0,0.014-0.002,0.039-0.005,0.074c-0.003,0.035-0.005,0.067-0.005,0.095c0,0.517,0.12,0.903,0.359,1.16
			c0.24,0.256,0.578,0.385,1.015,0.385C118.456,15.896,118.938,15.706,119.315,15.323z M116.544,13.746h1.471
			c0.014-0.015,0.021-0.091,0.021-0.23c0-0.396-0.07-0.689-0.211-0.878c-0.141-0.189-0.301-0.284-0.48-0.284
			c-0.081,0-0.178,0.033-0.292,0.099c-0.114,0.066-0.212,0.156-0.293,0.271C116.63,12.923,116.558,13.264,116.544,13.746z"/>
		<path fill="#0A2850" d="M120.389,14.48c0-0.721,0.197-1.308,0.59-1.762c0.464-0.535,1.127-0.8,1.988-0.796
			c0.784,0,1.409,0.23,1.875,0.691c0.466,0.46,0.699,1.051,0.699,1.772c0,0.777-0.246,1.385-0.738,1.824
			c-0.46,0.412-1.076,0.615-1.846,0.612c-0.735,0-1.346-0.215-1.835-0.646C120.633,15.744,120.389,15.179,120.389,14.48z
			 M122.796,12.354c-0.596,0-0.895,0.629-0.895,1.887c0,0.501,0.106,0.984,0.318,1.45c0.212,0.465,0.517,0.698,0.913,0.698
			c0.239,0,0.447-0.128,0.626-0.386c0.179-0.257,0.269-0.681,0.269-1.271c0-0.743-0.112-1.324-0.337-1.745
			C123.466,12.564,123.168,12.354,122.796,12.354z"/>
		<path fill="#0A2850" d="M128.399,13.82v1.577c0,0.433,0.043,0.697,0.129,0.793c0.086,0.097,0.301,0.156,0.646,0.177
			c0.028,0.028,0.043,0.09,0.045,0.185c0.002,0.095-0.013,0.157-0.045,0.185c-0.619-0.014-1.111-0.021-1.477-0.021
			c-0.383,0-0.877,0.007-1.482,0.021c-0.028-0.028-0.042-0.089-0.042-0.182c0-0.093,0.014-0.156,0.042-0.188
			c0.345-0.028,0.561-0.089,0.649-0.182c0.088-0.093,0.132-0.356,0.132-0.789v-2.02c0-0.303-0.043-0.499-0.129-0.588
			c-0.086-0.089-0.277-0.148-0.572-0.176c-0.042-0.13-0.051-0.243-0.026-0.338c0.418-0.042,1.016-0.16,1.793-0.353
			c0.151,0,0.236,0.062,0.253,0.185c0.035,0.352,0.06,0.635,0.074,0.849h0.042c0.482-0.693,0.911-1.037,1.287-1.034
			c0.186,0,0.351,0.064,0.496,0.192c0.144,0.128,0.216,0.265,0.216,0.409c0,0.222-0.063,0.408-0.19,0.559
			c-0.126,0.151-0.271,0.227-0.433,0.227c-0.229,0-0.402-0.06-0.522-0.179c-0.014-0.014-0.034-0.033-0.058-0.058
			c-0.024-0.024-0.044-0.044-0.058-0.058c-0.014-0.014-0.031-0.029-0.053-0.044c-0.021-0.016-0.04-0.027-0.058-0.035
			c-0.018-0.007-0.037-0.01-0.058-0.01c-0.102,0-0.216,0.062-0.343,0.185c-0.084,0.081-0.148,0.175-0.192,0.282
			C128.42,13.497,128.399,13.641,128.399,13.82z"/>
		<path fill="#0A2850" d="M135.13,15.323c0.109,0,0.163,0.111,0.163,0.332c-0.541,0.777-1.224,1.166-2.048,1.166
			c-0.707,0-1.257-0.179-1.65-0.538c-0.461-0.418-0.691-0.988-0.691-1.708c0-0.784,0.243-1.422,0.728-1.914
			c0.485-0.492,1.034-0.738,1.646-0.738c0.389,0,0.719,0.055,0.989,0.166c0.27,0.111,0.472,0.264,0.608,0.459
			c0.136,0.195,0.233,0.397,0.292,0.606c0.059,0.209,0.088,0.438,0.088,0.688c0,0.222-0.105,0.334-0.314,0.337h-2.623
			c0,0.014-0.002,0.039-0.005,0.074c-0.003,0.035-0.005,0.067-0.005,0.095c0,0.517,0.12,0.903,0.359,1.16
			c0.24,0.256,0.578,0.385,1.015,0.385C134.271,15.896,134.753,15.706,135.13,15.323z M132.359,13.746h1.471
			c0.014-0.015,0.021-0.091,0.021-0.23c0-0.396-0.07-0.689-0.211-0.878c-0.141-0.189-0.301-0.284-0.48-0.284
			c-0.081,0-0.178,0.033-0.292,0.099c-0.114,0.066-0.212,0.156-0.293,0.271C132.445,12.923,132.373,13.264,132.359,13.746z"/>
		<path fill="#0A2850" d="M136.409,12.027h0.301c0-0.728,0.04-1.145,0.121-1.25c0.021-0.028,0.064-0.056,0.129-0.084
			c0.065-0.028,0.145-0.057,0.24-0.087c0.095-0.03,0.162-0.053,0.201-0.071c0.084-0.035,0.205-0.075,0.361-0.121
			c0.157-0.045,0.254-0.068,0.293-0.068c0.056,0,0.084,0.031,0.084,0.095c-0.021,0.337-0.041,0.746-0.058,1.224l-0.011,0.364h1.266
			c0.056,0,0.084,0.021,0.084,0.063v0.338c0,0.095-0.086,0.142-0.258,0.142h-1.092c0,0.404,0.002,0.934,0.005,1.587
			s0.005,1.049,0.005,1.187c0,0.253,0.045,0.437,0.137,0.551c0.091,0.114,0.206,0.171,0.343,0.171c0.281,0,0.485-0.051,0.611-0.153
			c0.13,0.109,0.195,0.211,0.195,0.306c-0.116,0.158-0.317,0.298-0.604,0.419c-0.287,0.122-0.574,0.182-0.862,0.182
			c-0.359,0-0.658-0.1-0.896-0.301c-0.215-0.186-0.324-0.499-0.327-0.938c0-1.065,0.011-2.069,0.032-3.011h-0.702
			c-0.035,0-0.053-0.023-0.053-0.068V12.19C136.079,12.082,136.23,12.027,136.409,12.027z"/>
		<path fill="#0A2850" d="M142.046,15.396c0,0.433,0.046,0.697,0.137,0.793c0.092,0.097,0.323,0.156,0.693,0.177
			c0.03,0.028,0.045,0.09,0.045,0.185c0,0.095-0.015,0.157-0.043,0.185c-0.63-0.014-1.133-0.021-1.508-0.021
			c-0.39,0-0.892,0.007-1.507,0.021c-0.028-0.028-0.043-0.089-0.043-0.182c0-0.093,0.015-0.156,0.045-0.188
			c0.367-0.028,0.597-0.089,0.69-0.182c0.093-0.093,0.14-0.356,0.14-0.789v-2.072c0-0.303-0.042-0.497-0.124-0.583
			c-0.083-0.086-0.275-0.143-0.577-0.171c-0.042-0.137-0.049-0.253-0.021-0.348c1.121-0.151,1.746-0.251,1.874-0.3
			c0.16,0,0.24,0.062,0.24,0.185c0,0.007,0,0.019,0,0.034s-0.001,0.047-0.005,0.095c-0.004,0.048-0.007,0.097-0.011,0.148
			s-0.007,0.113-0.011,0.187s-0.006,0.145-0.008,0.214c-0.002,0.068-0.003,0.144-0.005,0.227c-0.001,0.083-0.002,0.161-0.002,0.235
			V15.396z M140.644,10.276c0-0.179,0.063-0.335,0.191-0.469c0.127-0.134,0.306-0.2,0.536-0.2c0.2,0,0.362,0.074,0.488,0.221
			c0.125,0.148,0.188,0.313,0.188,0.496c0,0.158-0.069,0.31-0.208,0.454c-0.139,0.145-0.315,0.216-0.528,0.216
			c-0.2,0-0.361-0.073-0.483-0.219S140.644,10.462,140.644,10.276z"/>
		<path fill="#0A2850" d="M147.625,15.774c-0.208,0.303-0.48,0.553-0.82,0.75c-0.339,0.197-0.667,0.296-0.983,0.296
			c-0.728,0-1.289-0.187-1.683-0.561c-0.446-0.42-0.669-0.995-0.669-1.726c0-0.774,0.234-1.403,0.701-1.887
			c0.468-0.483,1.032-0.725,1.693-0.725c0.548,0,0.979,0.119,1.292,0.356s0.469,0.493,0.469,0.767c0,0.172-0.055,0.316-0.166,0.43
			c-0.111,0.114-0.253,0.171-0.427,0.171c-0.174,0-0.325-0.049-0.454-0.147c-0.128-0.099-0.199-0.221-0.213-0.368
			c-0.021-0.21-0.081-0.393-0.179-0.546c-0.099-0.154-0.237-0.231-0.417-0.231c-0.598,0-0.896,0.601-0.896,1.803
			c0,0.573,0.146,1.033,0.438,1.379c0.292,0.346,0.647,0.52,1.065,0.52c0.295,0,0.666-0.207,1.112-0.621
			C147.58,15.438,147.625,15.552,147.625,15.774z"/>
		<path fill="#0A2850" d="M151.282,16.193l-0.07,0.005c-0.193,0.151-0.42,0.292-0.683,0.424c-0.263,0.132-0.466,0.198-0.609,0.198
			c-0.97,0-1.456-0.378-1.456-1.136c0-0.381,0.156-0.672,0.468-0.874c0.313-0.202,0.823-0.414,1.53-0.633l0.759-0.236
			c0-0.634-0.072-1.057-0.215-1.269s-0.348-0.318-0.614-0.318c-0.28,0-0.431,0.083-0.452,0.247c-0.007,0.043-0.008,0.09-0.002,0.143
			c0.005,0.052,0.011,0.097,0.018,0.137c0.007,0.039,0.014,0.081,0.021,0.126c0.007,0.044,0.01,0.083,0.01,0.115
			c0,0.136-0.065,0.255-0.195,0.356c-0.13,0.102-0.289,0.153-0.475,0.153c-0.201,0-0.344-0.049-0.43-0.147
			c-0.086-0.099-0.129-0.232-0.129-0.401c0-0.222,0.113-0.425,0.339-0.609s0.491-0.322,0.792-0.414
			c0.302-0.092,0.591-0.137,0.869-0.137c1.257,0,1.886,0.618,1.886,1.854l-0.021,1.565c0,0.275,0.022,0.466,0.066,0.57
			c0.044,0.104,0.122,0.157,0.235,0.157c0.172,0,0.323-0.051,0.454-0.154c0.13,0.109,0.195,0.211,0.195,0.307
			c-0.425,0.404-0.901,0.604-1.428,0.601C151.643,16.824,151.354,16.615,151.282,16.193z M151.222,14.361l-0.656,0.207
			c-0.158,0.055-0.286,0.118-0.387,0.189c-0.1,0.072-0.171,0.153-0.213,0.243c-0.042,0.091-0.068,0.171-0.081,0.241
			c-0.013,0.07-0.019,0.165-0.019,0.285c0,0.187,0.05,0.343,0.15,0.466c0.1,0.124,0.258,0.185,0.476,0.185
			c0.164,0,0.408-0.13,0.729-0.392V14.361z"/>
		<path fill="#0A2850" d="M154.534,15.344v-4.73c0-0.358-0.036-0.576-0.108-0.654c-0.072-0.077-0.281-0.13-0.625-0.158
			c-0.056-0.102-0.069-0.216-0.037-0.343c0.893-0.035,1.57-0.13,2.03-0.285c0.116,0,0.174,0.047,0.174,0.143
			c-0.021,0.267-0.032,0.634-0.032,1.102v4.925c0,0.433,0.052,0.708,0.155,0.825c0.104,0.118,0.33,0.184,0.678,0.198
			c0.035,0.028,0.053,0.09,0.053,0.185c0,0.095-0.018,0.157-0.053,0.185c-0.619-0.014-1.13-0.021-1.535-0.021
			c-0.418,0-0.93,0.007-1.534,0.021c-0.035-0.028-0.053-0.089-0.053-0.182c0-0.093,0.018-0.156,0.053-0.188
			c0.344-0.014,0.569-0.08,0.675-0.198C154.481,16.051,154.534,15.776,154.534,15.344z"/>
		<path fill="#0A2850" d="M158.167,15.344c0.295,0,0.526,0.113,0.693,0.34c0.167,0.227,0.25,0.556,0.25,0.989
			c0,0.179-0.058,0.386-0.174,0.62c-0.116,0.233-0.253,0.43-0.411,0.588c-0.352,0.352-0.744,0.564-1.176,0.638
			c-0.109-0.071-0.135-0.181-0.079-0.333c0.232-0.056,0.463-0.228,0.693-0.514c0.23-0.287,0.346-0.509,0.346-0.667
			s-0.13-0.276-0.39-0.354c-0.109-0.035-0.208-0.116-0.298-0.242c-0.089-0.127-0.134-0.255-0.134-0.385
			c0-0.123,0.079-0.267,0.237-0.432C157.882,15.426,158.03,15.344,158.167,15.344z"/>
		<path fill="#0A2850" d="M54.339,29.78c-1.086,0-1.938-0.228-2.556-0.682c-0.389-0.296-0.688-0.708-0.899-1.235
			c-0.211-0.527-0.316-1.061-0.316-1.6c0-1.143,0.353-2.044,1.06-2.706c0.707-0.661,1.613-0.991,2.721-0.991
			c0.517,0,1.022,0.076,1.516,0.229c0.494,0.153,0.778,0.233,0.852,0.24c0.123,0.758,0.202,1.317,0.237,1.677
			c-0.158,0.088-0.313,0.106-0.464,0.053c-0.165-0.558-0.414-0.991-0.746-1.302s-0.836-0.466-1.511-0.466
			c-0.633,0-1.15,0.294-1.55,0.884c-0.401,0.589-0.602,1.314-0.602,2.175c0,0.854,0.22,1.595,0.659,2.222
			c0.439,0.628,0.969,0.942,1.587,0.942c0.914,0,1.714-0.375,2.399-1.127c0.056,0,0.122,0.026,0.198,0.077
			c0.076,0.051,0.127,0.102,0.156,0.151C56.339,29.294,55.425,29.78,54.339,29.78z"/>
		<path fill="#0A2850" d="M58.188,27.44c0-0.721,0.197-1.308,0.59-1.762c0.464-0.535,1.127-0.8,1.988-0.796
			c0.784,0,1.409,0.23,1.875,0.691c0.466,0.46,0.699,1.051,0.699,1.772c0,0.777-0.246,1.385-0.738,1.824
			c-0.46,0.412-1.076,0.615-1.846,0.612c-0.735,0-1.346-0.215-1.835-0.646C58.433,28.704,58.188,28.139,58.188,27.44z
			 M60.596,25.313c-0.596,0-0.895,0.629-0.895,1.887c0,0.501,0.106,0.984,0.318,1.45c0.212,0.465,0.517,0.698,0.913,0.698
			c0.239,0,0.447-0.128,0.626-0.386c0.179-0.257,0.269-0.681,0.269-1.271c0-0.743-0.112-1.324-0.337-1.745
			C61.266,25.524,60.968,25.313,60.596,25.313z"/>
		<path fill="#0A2850" d="M66.199,28.356c0,0.425,0.032,0.688,0.097,0.789c0.065,0.1,0.219,0.161,0.461,0.182
			c0.028,0.028,0.043,0.09,0.045,0.185c0.002,0.095-0.013,0.157-0.045,0.185c-0.619-0.014-1.039-0.021-1.26-0.021
			c-0.383,0-0.877,0.007-1.482,0.021c-0.028-0.028-0.042-0.089-0.042-0.182c0-0.093,0.014-0.156,0.042-0.188
			c0.345-0.028,0.561-0.089,0.649-0.182c0.088-0.093,0.132-0.356,0.132-0.789v-2.02c0-0.303-0.042-0.497-0.124-0.583
			c-0.083-0.086-0.275-0.143-0.578-0.171c-0.042-0.137-0.051-0.253-0.026-0.348c0.612-0.081,1.209-0.198,1.793-0.353
			c0.158,0,0.243,0.062,0.253,0.185c0.024,0.165,0.044,0.355,0.058,0.569c0.387-0.218,0.737-0.398,1.052-0.541
			c0.314-0.142,0.56-0.213,0.736-0.213c0.088,0,0.173,0.006,0.256,0.019c0.083,0.012,0.161,0.03,0.234,0.053
			s0.143,0.052,0.206,0.087c0.063,0.035,0.122,0.075,0.177,0.119s0.104,0.092,0.15,0.145c0.045,0.053,0.085,0.109,0.119,0.168
			c0.033,0.06,0.063,0.124,0.087,0.19c0.362-0.204,0.729-0.385,1.102-0.543s0.65-0.237,0.833-0.237c0.467,0,0.811,0.14,1.031,0.419
			c0.22,0.28,0.33,0.715,0.33,1.305v1.688c0,0.44,0.052,0.718,0.156,0.836c0.104,0.118,0.33,0.184,0.678,0.198
			c0.035,0.028,0.053,0.09,0.053,0.185c0,0.095-0.018,0.157-0.053,0.185c-0.619-0.014-1.13-0.021-1.535-0.021
			c-0.274,0-0.714,0.007-1.318,0.021c-0.035-0.028-0.053-0.089-0.053-0.182c0-0.093,0.018-0.156,0.053-0.188
			c0.239-0.014,0.401-0.083,0.488-0.208c0.086-0.125,0.129-0.4,0.129-0.826V26.49c0-0.542-0.246-0.812-0.738-0.812
			c-0.045,0-0.106,0.008-0.182,0.023c-0.076,0.016-0.159,0.038-0.25,0.066c-0.092,0.028-0.192,0.064-0.301,0.108
			s-0.211,0.09-0.306,0.14c0.01,0.056,0.019,0.137,0.026,0.243c0.007,0.105,0.01,0.221,0.01,0.348v1.688
			c0,0.426,0.043,0.701,0.129,0.826c0.086,0.125,0.249,0.194,0.488,0.208C69.987,29.355,70,29.417,70,29.511
			c0,0.095-0.014,0.157-0.042,0.185c-0.619-0.014-1.058-0.021-1.318-0.021c-0.274,0-0.714,0.007-1.318,0.021
			c-0.028-0.028-0.042-0.089-0.042-0.182c0-0.093,0.014-0.156,0.042-0.188c0.239-0.014,0.401-0.083,0.488-0.208
			c0.086-0.125,0.129-0.4,0.129-0.826V26.49c0-0.542-0.253-0.812-0.76-0.812c-0.102,0-0.242,0.031-0.422,0.095
			c-0.179,0.063-0.366,0.155-0.559,0.274c0,0.07,0,0.123,0,0.158V28.356z"/>
		<path fill="#0A2850" d="M74.536,26.337c0-0.303-0.042-0.497-0.126-0.583c-0.084-0.086-0.278-0.143-0.58-0.171
			c-0.042-0.137-0.049-0.253-0.021-0.348c0.611-0.081,1.209-0.198,1.793-0.353c0.158,0,0.241,0.062,0.248,0.185
			c0.021,0.158,0.041,0.337,0.058,0.538h0.063c0.207-0.186,0.436-0.353,0.686-0.501c0.25-0.147,0.446-0.221,0.59-0.221
			c0.626,0,1.118,0.18,1.477,0.54c0.201,0.201,0.359,0.458,0.475,0.77c0.116,0.313,0.174,0.624,0.174,0.935
			c0,0.795-0.247,1.437-0.741,1.924c-0.494,0.487-1.15,0.73-1.97,0.73c-0.246,0-0.487-0.057-0.722-0.171v1.255
			c0,0.431,0.043,0.694,0.129,0.791c0.086,0.096,0.302,0.157,0.646,0.181c0.035,0.028,0.053,0.089,0.053,0.182
			c0,0.093-0.018,0.153-0.053,0.182c-0.619-0.014-1.111-0.021-1.477-0.021c-0.383,0-0.877,0.007-1.481,0.021
			c-0.035-0.028-0.053-0.089-0.053-0.182c0-0.093,0.018-0.154,0.053-0.182c0.344-0.028,0.561-0.09,0.648-0.185
			s0.132-0.358,0.132-0.791V26.337z M75.939,28.993c0.221,0.24,0.441,0.359,0.659,0.355c0.432,0,0.75-0.19,0.955-0.57
			c0.204-0.38,0.306-0.833,0.306-1.36c0-0.587-0.097-1.036-0.29-1.347s-0.417-0.467-0.67-0.467c-0.137,0-0.295,0.038-0.475,0.114
			c-0.179,0.076-0.343,0.181-0.49,0.315c0.003,0.06,0.005,0.119,0.005,0.175V28.993z"/>
		<path fill="#0A2850" d="M85.283,28.24c0,0.31,0.046,0.52,0.137,0.63s0.281,0.18,0.569,0.208c0.042,0.137,0.049,0.253,0.021,0.348
			c-0.612,0.081-1.209,0.199-1.793,0.354c-0.158,0-0.241-0.06-0.248-0.179c-0.018-0.137-0.035-0.295-0.053-0.475
			c-0.328,0.183-0.663,0.337-1.005,0.464s-0.608,0.19-0.798,0.19c-0.918,0-1.376-0.575-1.376-1.725v-1.688
			c0-0.425-0.052-0.7-0.157-0.825c-0.104-0.125-0.295-0.194-0.571-0.208c-0.028-0.028-0.042-0.09-0.042-0.185
			c0-0.095,0.014-0.157,0.042-0.185c0.62,0.014,1.096,0.021,1.427,0.021c0.15,0,0.355-0.007,0.614-0.021
			c0.07,0.07,0.107,0.193,0.111,0.369c0,0.028-0.004,0.118-0.011,0.269c-0.007,0.151-0.011,0.406-0.011,0.765v1.804
			c0,0.345,0.061,0.566,0.183,0.665c0.122,0.098,0.313,0.147,0.574,0.147c0.349,0,0.68-0.097,0.994-0.29
			c-0.003-0.056-0.006-0.111-0.008-0.166c-0.002-0.055-0.003-0.106-0.003-0.156v-2.004c0-0.432-0.046-0.706-0.14-0.82
			s-0.287-0.186-0.583-0.213c-0.035-0.028-0.053-0.09-0.053-0.185c0-0.095,0.017-0.157,0.05-0.185
			c0.62,0.014,1.095,0.021,1.426,0.021c0.137,0,0.343-0.007,0.617-0.021c0.07,0.07,0.107,0.193,0.111,0.369
			c0,0.028-0.004,0.118-0.013,0.269c-0.009,0.151-0.013,0.406-0.013,0.765V28.24z"/>
		<path fill="#0A2850" d="M86.913,24.987h0.301c0-0.728,0.04-1.145,0.121-1.25c0.021-0.028,0.064-0.056,0.129-0.084
			c0.065-0.028,0.145-0.057,0.24-0.087c0.095-0.03,0.162-0.053,0.201-0.071c0.084-0.035,0.205-0.075,0.361-0.121
			c0.157-0.045,0.254-0.068,0.293-0.068c0.056,0,0.084,0.031,0.084,0.095c-0.021,0.337-0.041,0.746-0.058,1.224l-0.011,0.364h1.266
			c0.056,0,0.084,0.021,0.084,0.063v0.338c0,0.095-0.086,0.142-0.258,0.142h-1.092c0,0.404,0.002,0.934,0.005,1.587
			s0.005,1.049,0.005,1.187c0,0.253,0.045,0.437,0.137,0.551c0.091,0.114,0.206,0.171,0.343,0.171c0.281,0,0.485-0.051,0.611-0.153
			c0.13,0.109,0.195,0.211,0.195,0.306c-0.116,0.158-0.317,0.298-0.604,0.419c-0.287,0.122-0.574,0.182-0.862,0.182
			c-0.359,0-0.658-0.1-0.896-0.301c-0.215-0.186-0.324-0.499-0.327-0.938c0-1.065,0.011-2.069,0.032-3.011h-0.702
			c-0.035,0-0.053-0.023-0.053-0.068V25.15C86.582,25.042,86.733,24.987,86.913,24.987z"/>
		<path fill="#0A2850" d="M93.391,29.153l-0.07,0.005c-0.193,0.151-0.42,0.292-0.683,0.424c-0.263,0.132-0.466,0.198-0.609,0.198
			c-0.97,0-1.456-0.378-1.456-1.136c0-0.381,0.156-0.672,0.468-0.874c0.313-0.202,0.823-0.414,1.53-0.633l0.759-0.236
			c0-0.634-0.072-1.057-0.215-1.269s-0.348-0.318-0.614-0.318c-0.28,0-0.431,0.083-0.452,0.247c-0.007,0.043-0.008,0.09-0.002,0.143
			c0.005,0.052,0.011,0.097,0.018,0.137c0.007,0.039,0.014,0.081,0.021,0.126c0.007,0.044,0.01,0.083,0.01,0.115
			c0,0.136-0.065,0.255-0.195,0.356c-0.13,0.102-0.289,0.153-0.475,0.153c-0.201,0-0.344-0.049-0.43-0.147
			c-0.086-0.099-0.129-0.232-0.129-0.401c0-0.222,0.113-0.425,0.339-0.609S91.698,25.11,92,25.019
			c0.302-0.092,0.591-0.137,0.869-0.137c1.257,0,1.886,0.618,1.886,1.854L94.733,28.3c0,0.275,0.022,0.466,0.066,0.57
			c0.044,0.104,0.122,0.157,0.235,0.157c0.172,0,0.323-0.051,0.454-0.154c0.13,0.109,0.195,0.211,0.195,0.307
			c-0.425,0.404-0.901,0.604-1.428,0.601C93.751,29.784,93.463,29.575,93.391,29.153z M93.331,27.321l-0.656,0.207
			c-0.158,0.055-0.286,0.118-0.387,0.189c-0.1,0.072-0.171,0.153-0.213,0.243c-0.042,0.091-0.068,0.171-0.081,0.241
			c-0.013,0.07-0.019,0.165-0.019,0.285c0,0.187,0.05,0.343,0.15,0.466c0.1,0.124,0.258,0.185,0.476,0.185
			c0.164,0,0.408-0.13,0.729-0.392V27.321z"/>
		<path fill="#0A2850" d="M96.241,24.987h0.301c0-0.728,0.04-1.145,0.121-1.25c0.021-0.028,0.064-0.056,0.129-0.084
			c0.065-0.028,0.145-0.057,0.24-0.087c0.095-0.03,0.162-0.053,0.201-0.071c0.084-0.035,0.205-0.075,0.361-0.121
			c0.157-0.045,0.254-0.068,0.293-0.068c0.056,0,0.084,0.031,0.084,0.095c-0.021,0.337-0.041,0.746-0.058,1.224l-0.011,0.364h1.266
			c0.056,0,0.084,0.021,0.084,0.063v0.338c0,0.095-0.086,0.142-0.258,0.142h-1.092c0,0.404,0.002,0.934,0.005,1.587
			s0.005,1.049,0.005,1.187c0,0.253,0.045,0.437,0.137,0.551c0.091,0.114,0.206,0.171,0.343,0.171c0.281,0,0.485-0.051,0.611-0.153
			c0.13,0.109,0.195,0.211,0.195,0.306c-0.116,0.158-0.317,0.298-0.604,0.419c-0.287,0.122-0.574,0.182-0.862,0.182
			c-0.359,0-0.658-0.1-0.896-0.301c-0.215-0.186-0.324-0.499-0.327-0.938c0-1.065,0.011-2.069,0.032-3.011H95.84
			c-0.035,0-0.053-0.023-0.053-0.068V25.15C95.911,25.042,96.062,24.987,96.241,24.987z"/>
		<path fill="#0A2850" d="M101.879,28.356c0,0.433,0.046,0.697,0.137,0.793c0.092,0.097,0.323,0.156,0.693,0.177
			c0.03,0.028,0.045,0.09,0.045,0.185c0,0.095-0.015,0.157-0.043,0.185c-0.63-0.014-1.133-0.021-1.508-0.021
			c-0.39,0-0.892,0.007-1.507,0.021c-0.028-0.028-0.043-0.089-0.043-0.182c0-0.093,0.015-0.156,0.045-0.188
			c0.367-0.028,0.597-0.089,0.69-0.182c0.093-0.093,0.14-0.356,0.14-0.789v-2.072c0-0.303-0.042-0.497-0.124-0.583
			c-0.083-0.086-0.275-0.143-0.577-0.171c-0.042-0.137-0.049-0.253-0.021-0.348c1.121-0.151,1.746-0.251,1.874-0.3
			c0.16,0,0.24,0.062,0.24,0.185c0,0.007,0,0.019,0,0.034s-0.001,0.047-0.005,0.095c-0.004,0.048-0.007,0.097-0.011,0.148
			s-0.007,0.113-0.011,0.187s-0.006,0.145-0.008,0.214c-0.002,0.068-0.003,0.144-0.005,0.227c-0.001,0.083-0.002,0.161-0.002,0.235
			V28.356z M100.476,23.236c0-0.179,0.063-0.335,0.191-0.469c0.127-0.134,0.306-0.2,0.536-0.2c0.2,0,0.362,0.074,0.488,0.221
			c0.125,0.148,0.188,0.313,0.188,0.496c0,0.158-0.069,0.31-0.208,0.454c-0.139,0.145-0.315,0.216-0.528,0.216
			c-0.2,0-0.361-0.073-0.483-0.219S100.476,23.422,100.476,23.236z"/>
		<path fill="#0A2850" d="M103.303,27.44c0-0.721,0.197-1.308,0.59-1.762c0.464-0.535,1.127-0.8,1.988-0.796
			c0.784,0,1.409,0.23,1.875,0.691c0.466,0.46,0.699,1.051,0.699,1.772c0,0.777-0.246,1.385-0.738,1.824
			c-0.46,0.412-1.076,0.615-1.846,0.612c-0.735,0-1.346-0.215-1.835-0.646C103.547,28.704,103.303,28.139,103.303,27.44z
			 M105.71,25.313c-0.596,0-0.895,0.629-0.895,1.887c0,0.501,0.106,0.984,0.318,1.45c0.212,0.465,0.517,0.698,0.913,0.698
			c0.239,0,0.447-0.128,0.626-0.386c0.179-0.257,0.269-0.681,0.269-1.271c0-0.743-0.112-1.324-0.337-1.745
			C106.38,25.524,106.082,25.313,105.71,25.313z"/>
		<path fill="#0A2850" d="M111.313,28.356c0,0.425,0.032,0.688,0.097,0.789c0.065,0.1,0.219,0.161,0.461,0.182
			c0.028,0.028,0.043,0.09,0.045,0.185c0.002,0.095-0.013,0.157-0.045,0.185c-0.619-0.014-1.039-0.021-1.26-0.021
			c-0.383,0-0.877,0.007-1.482,0.021c-0.028-0.028-0.042-0.089-0.042-0.182c0-0.093,0.014-0.156,0.042-0.188
			c0.345-0.028,0.561-0.089,0.649-0.182c0.088-0.093,0.132-0.356,0.132-0.789v-2.02c0-0.303-0.042-0.497-0.124-0.583
			c-0.083-0.086-0.275-0.143-0.578-0.171c-0.042-0.137-0.051-0.253-0.026-0.348c0.612-0.081,1.209-0.198,1.793-0.353
			c0.158,0,0.243,0.062,0.253,0.185c0.032,0.214,0.054,0.446,0.068,0.696c0.858-0.59,1.458-0.884,1.798-0.88
			c0.956,0,1.435,0.575,1.435,1.724v1.688c0,0.44,0.053,0.718,0.158,0.836c0.105,0.118,0.33,0.184,0.675,0.198
			c0.035,0.028,0.053,0.09,0.053,0.185c0,0.095-0.018,0.157-0.053,0.185c-0.619-0.014-1.13-0.021-1.535-0.021
			c-0.274,0-0.714,0.007-1.318,0.021c-0.035-0.028-0.053-0.089-0.053-0.182c0-0.093,0.018-0.156,0.053-0.188
			c0.239-0.014,0.402-0.083,0.488-0.208c0.086-0.125,0.129-0.4,0.129-0.826V26.49c0-0.542-0.251-0.812-0.754-0.812
			c-0.214,0-0.567,0.168-1.06,0.506v0.021V28.356z"/>
		<path fill="#0A2850" d="M118.792,29.153l-0.07,0.005c-0.193,0.151-0.42,0.292-0.683,0.424c-0.263,0.132-0.466,0.198-0.609,0.198
			c-0.97,0-1.456-0.378-1.456-1.136c0-0.381,0.156-0.672,0.468-0.874c0.313-0.202,0.823-0.414,1.53-0.633l0.759-0.236
			c0-0.634-0.072-1.057-0.215-1.269s-0.348-0.318-0.614-0.318c-0.28,0-0.431,0.083-0.452,0.247c-0.007,0.043-0.008,0.09-0.002,0.143
			c0.005,0.052,0.011,0.097,0.018,0.137c0.007,0.039,0.014,0.081,0.021,0.126c0.007,0.044,0.01,0.083,0.01,0.115
			c0,0.136-0.065,0.255-0.195,0.356c-0.13,0.102-0.289,0.153-0.475,0.153c-0.201,0-0.344-0.049-0.43-0.147
			c-0.086-0.099-0.129-0.232-0.129-0.401c0-0.222,0.113-0.425,0.339-0.609s0.491-0.322,0.792-0.414
			c0.302-0.092,0.591-0.137,0.869-0.137c1.257,0,1.886,0.618,1.886,1.854l-0.021,1.565c0,0.275,0.022,0.466,0.066,0.57
			c0.044,0.104,0.122,0.157,0.235,0.157c0.172,0,0.323-0.051,0.454-0.154c0.13,0.109,0.195,0.211,0.195,0.307
			c-0.425,0.404-0.901,0.604-1.428,0.601C119.153,29.784,118.865,29.575,118.792,29.153z M118.732,27.321l-0.656,0.207
			c-0.158,0.055-0.286,0.118-0.387,0.189c-0.1,0.072-0.171,0.153-0.213,0.243c-0.042,0.091-0.068,0.171-0.081,0.241
			c-0.013,0.07-0.019,0.165-0.019,0.285c0,0.187,0.05,0.343,0.15,0.466c0.1,0.124,0.258,0.185,0.476,0.185
			c0.164,0,0.408-0.13,0.729-0.392V27.321z"/>
		<path fill="#0A2850" d="M122.044,28.304v-4.73c0-0.358-0.036-0.576-0.108-0.654c-0.072-0.077-0.281-0.13-0.625-0.158
			c-0.056-0.102-0.069-0.216-0.037-0.343c0.893-0.035,1.57-0.13,2.03-0.285c0.116,0,0.174,0.047,0.174,0.143
			c-0.021,0.267-0.032,0.634-0.032,1.102v4.925c0,0.433,0.052,0.708,0.155,0.825c0.104,0.118,0.33,0.184,0.678,0.198
			c0.035,0.028,0.053,0.09,0.053,0.185c0,0.095-0.018,0.157-0.053,0.185c-0.619-0.014-1.13-0.021-1.535-0.021
			c-0.418,0-0.93,0.007-1.534,0.021c-0.035-0.028-0.053-0.089-0.053-0.182c0-0.093,0.018-0.156,0.053-0.188
			c0.344-0.014,0.569-0.08,0.675-0.198C121.992,29.011,122.044,28.736,122.044,28.304z"/>
		<path fill="#0A2850" d="M130.462,29.153l-0.07,0.005c-0.193,0.151-0.42,0.292-0.683,0.424c-0.263,0.132-0.466,0.198-0.609,0.198
			c-0.97,0-1.456-0.378-1.456-1.136c0-0.381,0.156-0.672,0.468-0.874c0.313-0.202,0.823-0.414,1.53-0.633l0.759-0.236
			c0-0.634-0.072-1.057-0.215-1.269s-0.348-0.318-0.614-0.318c-0.28,0-0.431,0.083-0.452,0.247c-0.007,0.043-0.008,0.09-0.002,0.143
			c0.005,0.052,0.011,0.097,0.018,0.137c0.007,0.039,0.014,0.081,0.021,0.126c0.007,0.044,0.01,0.083,0.01,0.115
			c0,0.136-0.065,0.255-0.195,0.356c-0.13,0.102-0.289,0.153-0.475,0.153c-0.201,0-0.344-0.049-0.43-0.147
			c-0.086-0.099-0.129-0.232-0.129-0.401c0-0.222,0.113-0.425,0.339-0.609s0.491-0.322,0.792-0.414
			c0.302-0.092,0.591-0.137,0.869-0.137c1.257,0,1.886,0.618,1.886,1.854l-0.021,1.565c0,0.275,0.022,0.466,0.066,0.57
			c0.044,0.104,0.122,0.157,0.235,0.157c0.172,0,0.323-0.051,0.454-0.154c0.13,0.109,0.195,0.211,0.195,0.307
			c-0.425,0.404-0.901,0.604-1.428,0.601C130.823,29.784,130.535,29.575,130.462,29.153z M130.402,27.321l-0.656,0.207
			c-0.158,0.055-0.286,0.118-0.387,0.189c-0.1,0.072-0.171,0.153-0.213,0.243c-0.042,0.091-0.068,0.171-0.081,0.241
			c-0.013,0.07-0.019,0.165-0.019,0.285c0,0.187,0.05,0.343,0.15,0.466c0.1,0.124,0.258,0.185,0.476,0.185
			c0.164,0,0.408-0.13,0.729-0.392V27.321z"/>
		<path fill="#0A2850" d="M135.096,28.356c0,0.425,0.032,0.688,0.097,0.789c0.065,0.1,0.219,0.161,0.461,0.182
			c0.028,0.028,0.043,0.09,0.045,0.185c0.002,0.095-0.013,0.157-0.045,0.185c-0.619-0.014-1.039-0.021-1.26-0.021
			c-0.383,0-0.877,0.007-1.482,0.021c-0.028-0.028-0.042-0.089-0.042-0.182c0-0.093,0.014-0.156,0.042-0.188
			c0.345-0.028,0.561-0.089,0.649-0.182c0.088-0.093,0.132-0.356,0.132-0.789v-2.02c0-0.303-0.042-0.497-0.124-0.583
			c-0.083-0.086-0.275-0.143-0.578-0.171c-0.042-0.137-0.051-0.253-0.026-0.348c0.612-0.081,1.209-0.198,1.793-0.353
			c0.158,0,0.243,0.062,0.253,0.185c0.032,0.214,0.054,0.446,0.068,0.696c0.858-0.59,1.458-0.884,1.798-0.88
			c0.956,0,1.435,0.575,1.435,1.724v1.688c0,0.44,0.053,0.718,0.158,0.836c0.105,0.118,0.33,0.184,0.675,0.198
			c0.035,0.028,0.053,0.09,0.053,0.185c0,0.095-0.018,0.157-0.053,0.185c-0.619-0.014-1.13-0.021-1.535-0.021
			c-0.274,0-0.714,0.007-1.318,0.021c-0.035-0.028-0.053-0.089-0.053-0.182c0-0.093,0.018-0.156,0.053-0.188
			c0.239-0.014,0.402-0.083,0.488-0.208c0.086-0.125,0.129-0.4,0.129-0.826V26.49c0-0.542-0.251-0.812-0.754-0.812
			c-0.214,0-0.567,0.168-1.06,0.506v0.021V28.356z"/>
		<path fill="#0A2850" d="M143.112,29.158h-0.089c-0.179,0.123-0.411,0.257-0.694,0.403c-0.284,0.146-0.491,0.219-0.621,0.219
			c-0.282,0-0.509-0.034-0.682-0.101c-0.172-0.067-0.368-0.185-0.586-0.354c-0.253-0.194-0.443-0.456-0.568-0.784
			s-0.188-0.667-0.188-1.017c0-0.711,0.261-1.33,0.784-1.855c0.522-0.526,1.132-0.789,1.829-0.789c0.288,0,0.547,0.041,0.778,0.121
			v-1.411c0-0.367-0.036-0.586-0.108-0.658s-0.279-0.124-0.623-0.156c-0.056-0.102-0.068-0.224-0.037-0.364
			c0.892-0.034,1.568-0.127,2.028-0.279c0.116,0,0.174,0.047,0.174,0.14c-0.021,0.268-0.032,0.635-0.032,1.103v4.864
			c0,0.31,0.045,0.52,0.134,0.63c0.09,0.111,0.279,0.18,0.567,0.208c0.042,0.137,0.049,0.253,0.021,0.348
			c-0.612,0.081-1.209,0.199-1.793,0.354c-0.158,0-0.241-0.06-0.248-0.179C143.142,29.475,143.125,29.327,143.112,29.158z
			 M143.08,28.649c0-0.032-0.001-0.063-0.002-0.093c-0.002-0.03-0.003-0.06-0.003-0.09c0-0.03,0-0.061,0-0.093v-2.673
			c-0.119-0.163-0.241-0.268-0.365-0.315c-0.125-0.048-0.273-0.072-0.444-0.072c-0.344,0-0.608,0.156-0.794,0.467
			c-0.179,0.297-0.27,0.767-0.273,1.411c0,0.608,0.09,1.073,0.271,1.395s0.411,0.482,0.691,0.482c0.032,0,0.087-0.013,0.166-0.04
			c0.079-0.027,0.164-0.06,0.255-0.101c0.091-0.041,0.184-0.086,0.279-0.138C142.954,28.739,143.027,28.692,143.08,28.649z"/>
		<path fill="#0A2850" d="M51.95,41.78c-0.007,0.071-0.018,0.133-0.031,0.188c-0.014,0.055,0.005,0.1,0.058,0.137
			c0.053,0.037,0.096,0.066,0.129,0.087c0.033,0.021,0.093,0.039,0.179,0.053c0.086,0.014,0.153,0.023,0.201,0.026
			c0.047,0.003,0.117,0.009,0.208,0.016c0.028,0.028,0.042,0.09,0.042,0.185c0,0.095-0.014,0.157-0.042,0.185
			c-0.534-0.014-1.012-0.021-1.434-0.021c-0.145,0-0.483,0.007-1.018,0.021c-0.035-0.028-0.053-0.089-0.053-0.182
			c0-0.093,0.018-0.156,0.053-0.188c0.187-0.014,0.333-0.035,0.438-0.063c0.105-0.028,0.218-0.096,0.337-0.203
			c0.119-0.107,0.221-0.27,0.306-0.488l2.341-5.527c0.267,0,0.665-0.16,1.192-0.479l2.226,6.18c0.035,0.109,0.083,0.2,0.145,0.271
			c0.062,0.072,0.11,0.126,0.145,0.161s0.111,0.065,0.227,0.089c0.116,0.025,0.183,0.037,0.201,0.037
			c0.018,0,0.102,0.007,0.253,0.021c0.028,0.028,0.042,0.09,0.042,0.185c0,0.095-0.014,0.157-0.042,0.185
			c-0.535-0.014-1.016-0.021-1.445-0.021c-0.7,0-1.317,0.007-1.851,0.021c-0.035-0.028-0.053-0.089-0.053-0.182
			c0-0.093,0.018-0.156,0.053-0.188c0.042,0,0.098-0.001,0.169-0.005c0.07-0.003,0.125-0.007,0.163-0.01
			c0.039-0.003,0.085-0.007,0.14-0.011c0.054-0.003,0.096-0.01,0.124-0.021c0.028-0.011,0.061-0.021,0.098-0.032
			c0.037-0.01,0.064-0.026,0.082-0.047c0.018-0.021,0.031-0.046,0.042-0.077c0.011-0.03,0.014-0.062,0.011-0.097
			c-0.004-0.035-0.013-0.078-0.026-0.127l-0.606-1.761h-2.052c-0.13,0-0.218,0.013-0.264,0.037
			c-0.045,0.024-0.084,0.074-0.116,0.147L51.95,41.78z M53.115,39.576h1.64l-0.881-2.558h-0.074l-0.959,2.415
			c-0.011,0.021-0.014,0.041-0.011,0.058s0.011,0.032,0.021,0.042c0.011,0.01,0.028,0.019,0.053,0.026
			c0.024,0.007,0.054,0.011,0.087,0.013C53.025,39.575,53.066,39.576,53.115,39.576z"/>
		<path fill="#0A2850" d="M59.185,39.297c0-0.303-0.042-0.497-0.126-0.583c-0.084-0.086-0.278-0.143-0.58-0.171
			c-0.042-0.137-0.049-0.253-0.021-0.348c0.611-0.081,1.209-0.198,1.793-0.353c0.158,0,0.241,0.062,0.248,0.185
			c0.021,0.158,0.041,0.337,0.058,0.538h0.063c0.207-0.186,0.436-0.353,0.686-0.501c0.25-0.147,0.446-0.221,0.59-0.221
			c0.626,0,1.118,0.18,1.477,0.54c0.201,0.201,0.359,0.458,0.475,0.77c0.116,0.313,0.174,0.624,0.174,0.935
			c0,0.795-0.247,1.437-0.741,1.924c-0.494,0.487-1.15,0.73-1.97,0.73c-0.246,0-0.487-0.057-0.722-0.171v1.255
			c0,0.431,0.043,0.694,0.129,0.791c0.086,0.096,0.302,0.157,0.646,0.181c0.035,0.028,0.053,0.089,0.053,0.182
			c0,0.093-0.018,0.153-0.053,0.182c-0.619-0.014-1.111-0.021-1.477-0.021c-0.383,0-0.877,0.007-1.481,0.021
			c-0.035-0.028-0.053-0.089-0.053-0.182c0-0.093,0.018-0.154,0.053-0.182c0.344-0.028,0.561-0.09,0.648-0.185
			s0.132-0.358,0.132-0.791V39.297z M60.588,41.953c0.221,0.24,0.441,0.359,0.659,0.355c0.432,0,0.75-0.19,0.955-0.57
			c0.204-0.38,0.306-0.833,0.306-1.36c0-0.587-0.097-1.036-0.29-1.347s-0.417-0.467-0.67-0.467c-0.137,0-0.295,0.038-0.475,0.114
			c-0.179,0.076-0.343,0.181-0.49,0.315c0.003,0.06,0.005,0.119,0.005,0.175V41.953z"/>
		<path fill="#0A2850" d="M65.455,39.297c0-0.303-0.042-0.497-0.126-0.583c-0.084-0.086-0.278-0.143-0.58-0.171
			c-0.042-0.137-0.049-0.253-0.021-0.348c0.611-0.081,1.209-0.198,1.793-0.353c0.158,0,0.241,0.062,0.248,0.185
			c0.021,0.158,0.041,0.337,0.058,0.538h0.063c0.207-0.186,0.436-0.353,0.686-0.501c0.25-0.147,0.446-0.221,0.59-0.221
			c0.626,0,1.118,0.18,1.477,0.54c0.201,0.201,0.359,0.458,0.475,0.77c0.116,0.313,0.174,0.624,0.174,0.935
			c0,0.795-0.247,1.437-0.741,1.924c-0.494,0.487-1.15,0.73-1.97,0.73c-0.246,0-0.487-0.057-0.722-0.171v1.255
			c0,0.431,0.043,0.694,0.129,0.791c0.086,0.096,0.302,0.157,0.646,0.181c0.035,0.028,0.053,0.089,0.053,0.182
			c0,0.093-0.018,0.153-0.053,0.182c-0.619-0.014-1.111-0.021-1.477-0.021c-0.383,0-0.877,0.007-1.481,0.021
			c-0.035-0.028-0.053-0.089-0.053-0.182c0-0.093,0.018-0.154,0.053-0.182c0.344-0.028,0.561-0.09,0.648-0.185
			s0.132-0.358,0.132-0.791V39.297z M66.858,41.953c0.221,0.24,0.441,0.359,0.659,0.355c0.432,0,0.75-0.19,0.955-0.57
			c0.204-0.38,0.306-0.833,0.306-1.36c0-0.587-0.097-1.036-0.29-1.347s-0.417-0.467-0.67-0.467c-0.137,0-0.295,0.038-0.475,0.114
			c-0.179,0.076-0.343,0.181-0.49,0.315c0.003,0.06,0.005,0.119,0.005,0.175V41.953z"/>
		<path fill="#0A2850" d="M71.778,41.264v-4.73c0-0.358-0.036-0.576-0.108-0.654c-0.072-0.077-0.281-0.13-0.625-0.158
			c-0.056-0.102-0.069-0.216-0.037-0.343c0.893-0.035,1.57-0.13,2.03-0.285c0.116,0,0.174,0.047,0.174,0.143
			c-0.021,0.267-0.032,0.634-0.032,1.102v4.925c0,0.433,0.052,0.708,0.155,0.825c0.104,0.118,0.33,0.184,0.678,0.198
			c0.035,0.028,0.053,0.09,0.053,0.185c0,0.095-0.018,0.157-0.053,0.185c-0.619-0.014-1.13-0.021-1.535-0.021
			c-0.418,0-0.93,0.007-1.534,0.021c-0.035-0.028-0.053-0.089-0.053-0.182c0-0.093,0.018-0.156,0.053-0.188
			c0.344-0.014,0.569-0.08,0.675-0.198C71.725,41.971,71.778,41.696,71.778,41.264z"/>
		<path fill="#0A2850" d="M76.656,41.316c0,0.433,0.046,0.697,0.137,0.793c0.092,0.097,0.323,0.156,0.693,0.177
			c0.03,0.028,0.045,0.09,0.045,0.185c0,0.095-0.015,0.157-0.043,0.185c-0.63-0.014-1.133-0.021-1.508-0.021
			c-0.39,0-0.892,0.007-1.507,0.021c-0.028-0.028-0.043-0.089-0.043-0.182c0-0.093,0.015-0.156,0.045-0.188
			c0.367-0.028,0.597-0.089,0.69-0.182c0.093-0.093,0.14-0.356,0.14-0.789v-2.072c0-0.303-0.042-0.497-0.124-0.583
			c-0.083-0.086-0.275-0.143-0.577-0.171c-0.042-0.137-0.049-0.253-0.021-0.348c1.121-0.151,1.746-0.251,1.874-0.3
			c0.16,0,0.24,0.062,0.24,0.185c0,0.007,0,0.019,0,0.034s-0.001,0.047-0.005,0.095c-0.004,0.048-0.007,0.097-0.011,0.148
			s-0.007,0.113-0.011,0.187s-0.006,0.145-0.008,0.214c-0.002,0.068-0.003,0.144-0.005,0.227c-0.001,0.083-0.002,0.161-0.002,0.235
			V41.316z M75.253,36.196c0-0.179,0.063-0.335,0.191-0.469c0.127-0.134,0.306-0.2,0.536-0.2c0.2,0,0.362,0.074,0.488,0.221
			c0.125,0.148,0.188,0.313,0.188,0.496c0,0.158-0.069,0.31-0.208,0.454c-0.139,0.145-0.315,0.216-0.528,0.216
			c-0.2,0-0.361-0.073-0.483-0.219S75.253,36.382,75.253,36.196z"/>
		<path fill="#0A2850" d="M82.307,41.243c0.109,0,0.163,0.111,0.163,0.332c-0.541,0.777-1.224,1.166-2.048,1.166
			c-0.707,0-1.257-0.179-1.65-0.538c-0.461-0.418-0.691-0.988-0.691-1.708c0-0.784,0.243-1.422,0.728-1.914
			c0.485-0.492,1.034-0.738,1.646-0.738c0.389,0,0.719,0.055,0.989,0.166c0.27,0.111,0.472,0.264,0.608,0.459
			c0.136,0.195,0.233,0.397,0.292,0.606c0.059,0.209,0.088,0.438,0.088,0.688c0,0.222-0.105,0.334-0.314,0.337h-2.623
			c0,0.014-0.002,0.039-0.005,0.074c-0.003,0.035-0.005,0.067-0.005,0.095c0,0.517,0.12,0.903,0.359,1.16
			c0.24,0.256,0.578,0.385,1.015,0.385C81.447,41.815,81.93,41.626,82.307,41.243z M79.536,39.666h1.471
			c0.014-0.015,0.021-0.091,0.021-0.23c0-0.396-0.07-0.689-0.211-0.878c-0.141-0.189-0.301-0.284-0.48-0.284
			c-0.081,0-0.178,0.033-0.292,0.099c-0.114,0.066-0.212,0.156-0.293,0.271C79.622,38.843,79.549,39.184,79.536,39.666z"/>
		<path fill="#0A2850" d="M86.786,42.118h-0.089c-0.179,0.123-0.411,0.257-0.694,0.403c-0.284,0.146-0.491,0.219-0.621,0.219
			c-0.282,0-0.509-0.034-0.682-0.101c-0.172-0.067-0.368-0.185-0.586-0.354c-0.253-0.194-0.443-0.456-0.568-0.784
			s-0.188-0.667-0.188-1.017c0-0.711,0.261-1.33,0.784-1.855c0.522-0.526,1.132-0.789,1.829-0.789c0.288,0,0.547,0.041,0.778,0.121
			v-1.411c0-0.367-0.036-0.586-0.108-0.658s-0.279-0.124-0.623-0.156c-0.056-0.102-0.068-0.224-0.037-0.364
			c0.892-0.034,1.568-0.127,2.028-0.279c0.116,0,0.174,0.047,0.174,0.14c-0.021,0.268-0.032,0.635-0.032,1.103V41.2
			c0,0.31,0.045,0.52,0.134,0.63c0.09,0.111,0.279,0.18,0.567,0.208c0.042,0.137,0.049,0.253,0.021,0.348
			c-0.612,0.081-1.209,0.199-1.793,0.354c-0.158,0-0.241-0.06-0.248-0.179C86.816,42.435,86.8,42.287,86.786,42.118z M86.754,41.609
			c0-0.032-0.001-0.063-0.002-0.093c-0.002-0.03-0.003-0.06-0.003-0.09c0-0.03,0-0.061,0-0.093v-2.673
			c-0.119-0.163-0.241-0.268-0.365-0.315c-0.125-0.048-0.273-0.072-0.444-0.072c-0.344,0-0.608,0.156-0.794,0.467
			c-0.179,0.297-0.27,0.767-0.273,1.411c0,0.608,0.09,1.073,0.271,1.395s0.411,0.482,0.691,0.482c0.032,0,0.087-0.013,0.166-0.04
			c0.079-0.027,0.164-0.06,0.255-0.101c0.091-0.041,0.184-0.086,0.279-0.138C86.628,41.699,86.702,41.652,86.754,41.609z"/>
		<path fill="#0A2850" d="M98.869,41.379l-0.276-4.514h-0.027l-2.485,5.716c-0.043,0.095-0.113,0.141-0.21,0.137
			c-0.112,0-0.186-0.046-0.222-0.137l-2.177-5.326l-0.043-0.009l-0.285,4.05c-0.023,0.34,0.007,0.583,0.091,0.729
			c0.083,0.146,0.291,0.232,0.621,0.261c0.028,0.028,0.042,0.09,0.042,0.185c0,0.095-0.014,0.157-0.042,0.185
			c-0.433-0.014-0.809-0.021-1.129-0.021c-0.171,0-0.474,0.007-0.91,0.021c-0.028-0.028-0.042-0.089-0.042-0.182
			c0-0.093,0.014-0.156,0.042-0.188c0.295-0.024,0.496-0.105,0.601-0.243c0.105-0.137,0.176-0.376,0.211-0.717l0.435-4.451
			c0.035-0.397,0.017-0.635-0.055-0.712c-0.072-0.078-0.298-0.127-0.678-0.148c-0.035-0.035-0.054-0.097-0.056-0.185
			c-0.001-0.088,0.017-0.149,0.056-0.185l2.225,0.021l1.943,4.793h0.053l2.071-4.793l2.177-0.021
			c0.035,0.035,0.053,0.096,0.053,0.182c0,0.086-0.018,0.148-0.053,0.187c-0.355,0.021-0.573,0.078-0.654,0.171
			c-0.081,0.093-0.111,0.29-0.089,0.591l0.33,4.546c0.012,0.172,0.021,0.3,0.028,0.384c0.006,0.084,0.023,0.169,0.051,0.254
			s0.055,0.142,0.079,0.17s0.073,0.058,0.145,0.087c0.072,0.03,0.143,0.048,0.211,0.053c0.069,0.005,0.173,0.01,0.314,0.013
			c0.035,0.028,0.053,0.09,0.053,0.185c0,0.095-0.018,0.157-0.053,0.185c-0.475-0.014-0.871-0.021-1.189-0.021
			c-0.545,0-1.16,0.007-1.842,0.021c-0.035-0.028-0.053-0.089-0.053-0.182c0-0.093,0.018-0.156,0.053-0.188
			c0.144-0.007,0.244-0.011,0.3-0.013c0.056-0.001,0.122-0.016,0.195-0.042s0.119-0.053,0.134-0.079
			c0.016-0.026,0.034-0.078,0.053-0.156c0.02-0.077,0.028-0.158,0.024-0.243C98.887,41.67,98.88,41.545,98.869,41.379z"/>
		<path fill="#0A2850" d="M106.047,41.243c0.109,0,0.163,0.111,0.163,0.332c-0.541,0.777-1.224,1.166-2.048,1.166
			c-0.707,0-1.257-0.179-1.65-0.538c-0.461-0.418-0.691-0.988-0.691-1.708c0-0.784,0.243-1.422,0.728-1.914
			c0.485-0.492,1.034-0.738,1.646-0.738c0.389,0,0.719,0.055,0.989,0.166c0.27,0.111,0.472,0.264,0.608,0.459
			c0.136,0.195,0.233,0.397,0.292,0.606c0.059,0.209,0.088,0.438,0.088,0.688c0,0.222-0.105,0.334-0.314,0.337h-2.623
			c0,0.014-0.002,0.039-0.005,0.074c-0.003,0.035-0.005,0.067-0.005,0.095c0,0.517,0.12,0.903,0.359,1.16
			c0.24,0.256,0.578,0.385,1.015,0.385C105.188,41.815,105.67,41.626,106.047,41.243z M103.276,39.666h1.471
			c0.014-0.015,0.021-0.091,0.021-0.23c0-0.396-0.07-0.689-0.211-0.878c-0.141-0.189-0.301-0.284-0.48-0.284
			c-0.081,0-0.178,0.033-0.292,0.099c-0.114,0.066-0.212,0.156-0.293,0.271C103.362,38.843,103.29,39.184,103.276,39.666z"/>
		<path fill="#0A2850" d="M111.276,41.694c-0.208,0.303-0.48,0.553-0.82,0.75c-0.339,0.197-0.667,0.296-0.983,0.296
			c-0.728,0-1.289-0.187-1.683-0.561c-0.446-0.42-0.669-0.995-0.669-1.726c0-0.774,0.234-1.403,0.701-1.887
			c0.468-0.483,1.032-0.725,1.693-0.725c0.548,0,0.979,0.119,1.292,0.356s0.469,0.493,0.469,0.767c0,0.172-0.055,0.316-0.166,0.43
			c-0.111,0.114-0.253,0.171-0.427,0.171c-0.174,0-0.325-0.049-0.454-0.147c-0.128-0.099-0.199-0.221-0.213-0.368
			c-0.021-0.21-0.081-0.393-0.179-0.546c-0.099-0.154-0.237-0.231-0.417-0.231c-0.598,0-0.896,0.601-0.896,1.803
			c0,0.573,0.146,1.033,0.438,1.379c0.292,0.346,0.647,0.52,1.065,0.52c0.295,0,0.666-0.207,1.112-0.621
			C111.23,41.358,111.276,41.472,111.276,41.694z"/>
		<path fill="#0A2850" d="M117.34,41.253c0,0.44,0.053,0.718,0.158,0.836c0.105,0.118,0.33,0.184,0.675,0.198
			c0.035,0.028,0.053,0.09,0.053,0.185c0,0.095-0.018,0.157-0.053,0.185c-0.619-0.014-1.13-0.021-1.535-0.021
			c-0.274,0-0.713,0.007-1.318,0.021c-0.035-0.028-0.053-0.089-0.053-0.182c0-0.093,0.018-0.156,0.053-0.188
			c0.239-0.014,0.402-0.083,0.488-0.208c0.086-0.125,0.129-0.4,0.129-0.826V39.45c0-0.542-0.269-0.812-0.807-0.812
			c-0.236,0-0.572,0.139-1.007,0.417v2.209c0,0.425,0.041,0.699,0.124,0.82c0.083,0.122,0.247,0.189,0.493,0.203
			c0.035,0.028,0.053,0.09,0.053,0.185c0,0.095-0.018,0.157-0.053,0.185c-0.619-0.014-1.058-0.021-1.318-0.021
			c-0.418,0-0.93,0.007-1.534,0.021c-0.035-0.028-0.053-0.089-0.053-0.182c0-0.093,0.018-0.156,0.053-0.188
			c0.344-0.014,0.569-0.08,0.675-0.198c0.105-0.118,0.158-0.393,0.158-0.825v-4.73c0-0.358-0.036-0.576-0.108-0.654
			c-0.072-0.077-0.281-0.13-0.625-0.158c-0.056-0.102-0.069-0.216-0.037-0.343c0.893-0.035,1.57-0.13,2.03-0.285
			c0.116,0,0.174,0.047,0.174,0.143c-0.021,0.267-0.032,0.634-0.032,1.102v2.283c0.826-0.52,1.42-0.78,1.782-0.78
			c0.957,0,1.435,0.575,1.435,1.724V41.253z"/>
		<path fill="#0A2850" d="M121.614,42.113l-0.07,0.005c-0.193,0.151-0.42,0.292-0.683,0.424c-0.263,0.132-0.466,0.198-0.609,0.198
			c-0.97,0-1.456-0.378-1.456-1.136c0-0.381,0.156-0.672,0.468-0.874c0.313-0.202,0.823-0.414,1.53-0.633l0.759-0.236
			c0-0.634-0.072-1.057-0.215-1.269s-0.348-0.318-0.614-0.318c-0.28,0-0.431,0.083-0.452,0.247c-0.007,0.043-0.008,0.09-0.002,0.143
			c0.005,0.052,0.011,0.097,0.018,0.137c0.007,0.039,0.014,0.081,0.021,0.126c0.007,0.044,0.01,0.083,0.01,0.115
			c0,0.136-0.065,0.255-0.195,0.356c-0.13,0.102-0.289,0.153-0.475,0.153c-0.201,0-0.344-0.049-0.43-0.147
			c-0.086-0.099-0.129-0.232-0.129-0.401c0-0.222,0.113-0.425,0.339-0.609s0.491-0.322,0.792-0.414
			c0.302-0.092,0.591-0.137,0.869-0.137c1.257,0,1.886,0.618,1.886,1.854l-0.021,1.565c0,0.275,0.022,0.466,0.066,0.57
			c0.044,0.104,0.122,0.157,0.235,0.157c0.172,0,0.323-0.051,0.454-0.154c0.13,0.109,0.195,0.211,0.195,0.307
			c-0.425,0.404-0.901,0.604-1.428,0.601C121.975,42.744,121.686,42.535,121.614,42.113z M121.554,40.281l-0.656,0.207
			c-0.158,0.055-0.286,0.118-0.387,0.189c-0.1,0.072-0.171,0.153-0.213,0.243c-0.042,0.091-0.068,0.171-0.081,0.241
			c-0.013,0.07-0.019,0.165-0.019,0.285c0,0.187,0.05,0.343,0.15,0.466c0.1,0.124,0.258,0.185,0.476,0.185
			c0.164,0,0.408-0.13,0.729-0.392V40.281z"/>
		<path fill="#0A2850" d="M126.248,41.316c0,0.425,0.032,0.688,0.097,0.789c0.065,0.1,0.219,0.161,0.461,0.182
			c0.028,0.028,0.043,0.09,0.045,0.185c0.002,0.095-0.013,0.157-0.045,0.185c-0.619-0.014-1.039-0.021-1.26-0.021
			c-0.383,0-0.877,0.007-1.482,0.021c-0.028-0.028-0.042-0.089-0.042-0.182c0-0.093,0.014-0.156,0.042-0.188
			c0.345-0.028,0.561-0.089,0.649-0.182c0.088-0.093,0.132-0.356,0.132-0.789v-2.02c0-0.303-0.042-0.497-0.124-0.583
			c-0.083-0.086-0.275-0.143-0.578-0.171c-0.042-0.137-0.051-0.253-0.026-0.348c0.612-0.081,1.209-0.198,1.793-0.353
			c0.158,0,0.243,0.062,0.253,0.185c0.032,0.214,0.054,0.446,0.068,0.696c0.858-0.59,1.458-0.884,1.798-0.88
			c0.956,0,1.435,0.575,1.435,1.724v1.688c0,0.44,0.053,0.718,0.158,0.836c0.105,0.118,0.33,0.184,0.675,0.198
			c0.035,0.028,0.053,0.09,0.053,0.185c0,0.095-0.018,0.157-0.053,0.185c-0.619-0.014-1.13-0.021-1.535-0.021
			c-0.274,0-0.714,0.007-1.318,0.021c-0.035-0.028-0.053-0.089-0.053-0.182c0-0.093,0.018-0.156,0.053-0.188
			c0.239-0.014,0.402-0.083,0.488-0.208c0.086-0.125,0.129-0.4,0.129-0.826V39.45c0-0.542-0.251-0.812-0.754-0.812
			c-0.214,0-0.567,0.168-1.06,0.506v0.021V41.316z"/>
		<path fill="#0A2850" d="M132.887,41.316c0,0.433,0.046,0.697,0.137,0.793c0.092,0.097,0.323,0.156,0.693,0.177
			c0.03,0.028,0.045,0.09,0.045,0.185c0,0.095-0.015,0.157-0.043,0.185c-0.63-0.014-1.133-0.021-1.508-0.021
			c-0.39,0-0.892,0.007-1.507,0.021c-0.028-0.028-0.043-0.089-0.043-0.182c0-0.093,0.015-0.156,0.045-0.188
			c0.367-0.028,0.597-0.089,0.69-0.182c0.093-0.093,0.14-0.356,0.14-0.789v-2.072c0-0.303-0.042-0.497-0.124-0.583
			c-0.083-0.086-0.275-0.143-0.577-0.171c-0.042-0.137-0.049-0.253-0.021-0.348c1.121-0.151,1.746-0.251,1.874-0.3
			c0.16,0,0.24,0.062,0.24,0.185c0,0.007,0,0.019,0,0.034s-0.001,0.047-0.005,0.095c-0.004,0.048-0.007,0.097-0.011,0.148
			s-0.007,0.113-0.011,0.187s-0.006,0.145-0.008,0.214c-0.002,0.068-0.003,0.144-0.005,0.227c-0.001,0.083-0.002,0.161-0.002,0.235
			V41.316z M131.484,36.196c0-0.179,0.063-0.335,0.191-0.469c0.127-0.134,0.306-0.2,0.536-0.2c0.2,0,0.362,0.074,0.488,0.221
			c0.125,0.148,0.188,0.313,0.188,0.496c0,0.158-0.069,0.31-0.208,0.454c-0.139,0.145-0.315,0.216-0.528,0.216
			c-0.2,0-0.361-0.073-0.483-0.219S131.484,36.382,131.484,36.196z"/>
		<path fill="#0A2850" d="M138.466,41.694c-0.208,0.303-0.48,0.553-0.82,0.75c-0.339,0.197-0.667,0.296-0.983,0.296
			c-0.728,0-1.289-0.187-1.683-0.561c-0.446-0.42-0.669-0.995-0.669-1.726c0-0.774,0.234-1.403,0.701-1.887
			c0.468-0.483,1.032-0.725,1.693-0.725c0.548,0,0.979,0.119,1.292,0.356s0.469,0.493,0.469,0.767c0,0.172-0.055,0.316-0.166,0.43
			c-0.111,0.114-0.253,0.171-0.427,0.171c-0.174,0-0.325-0.049-0.454-0.147c-0.128-0.099-0.199-0.221-0.213-0.368
			c-0.021-0.21-0.081-0.393-0.179-0.546c-0.099-0.154-0.237-0.231-0.417-0.231c-0.598,0-0.896,0.601-0.896,1.803
			c0,0.573,0.146,1.033,0.438,1.379c0.292,0.346,0.647,0.52,1.065,0.52c0.295,0,0.666-0.207,1.112-0.621
			C138.42,41.358,138.466,41.472,138.466,41.694z"/>
		<path fill="#0A2850" d="M139.346,41.041c0.158-0.035,0.303-0.042,0.433-0.021c0.109,0.391,0.279,0.703,0.509,0.937
			c0.23,0.234,0.472,0.351,0.725,0.351c0.158,0,0.304-0.047,0.438-0.143c0.133-0.095,0.2-0.225,0.2-0.391
			c0-0.397-0.185-0.678-0.554-0.839c-0.489-0.222-0.905-0.52-1.25-0.894c-0.221-0.244-0.334-0.513-0.337-0.807
			c0-0.308,0.123-0.587,0.369-0.838c0.366-0.37,0.851-0.555,1.456-0.555c0.411,0,0.815,0.082,1.213,0.246
			c0.095,0.329,0.141,0.707,0.137,1.137c-0.095,0.063-0.236,0.081-0.422,0.053c-0.274-0.669-0.612-1.003-1.013-1.003
			c-0.151,0-0.276,0.043-0.375,0.129c-0.098,0.086-0.147,0.195-0.147,0.325c0,0.398,0.195,0.678,0.585,0.84
			c0.559,0.243,0.977,0.521,1.255,0.834c0.222,0.246,0.333,0.556,0.333,0.929c0,0.445-0.194,0.791-0.583,1.038
			c-0.388,0.248-0.816,0.371-1.284,0.371c-0.548,0-1.049-0.082-1.503-0.246C139.457,42.19,139.396,41.706,139.346,41.041z"/>
	</g>
	<g>
		<path fill="#CED4DC" d="M14.506,41.673c0-1.552,0.974-2.352,2.214-2.352c1.359,0,2.195,0.964,2.195,2.37
			c0,1.369-0.799,2.37-2.104,2.37C15.287,44.061,14.497,42.986,14.506,41.673z M16.628,42.702c0.753,0,1.8-0.184,1.8-1.139
			c0-0.413-0.358-0.882-1.488-0.882c-1.369,0-1.938,0.275-1.938,1.057C15.002,42.527,15.774,42.702,16.628,42.702z"/>
		<path fill="#CED4DC" d="M14.571,38.755c0.027-0.156,0.027-0.597,0.027-0.762c0-0.138,0-0.588-0.027-0.716
			c1.047-0.331,2.076-0.717,3.114-1.158c-0.018-0.009-0.027-0.018-0.046-0.018c-0.928-0.404-2.094-0.772-3.068-1.066
			c0.027-0.092,0.027-0.349,0.027-0.45c0-0.092,0-0.45-0.027-0.542c1.442,0.661,2.848,1.304,4.28,1.818
			c-0.027,0.083-0.027,0.404-0.027,0.496c0,0.101,0,0.505,0.027,0.606C17.418,37.515,16.013,38.094,14.571,38.755z"/>
		<path fill="#CED4DC" d="M14.598,30.179c0-0.193-0.009-0.404-0.027-0.551l0.027-0.019c0.129,0.009,0.239,0.019,0.313,0.019
			c0.083,0,0.147-0.009,0.22-0.019l0.037,0.019c0,0-0.11,0.744-0.11,1.975c0.22,0.064,1.01,0.074,1.167,0.074h0.174
			c0-1.084-0.046-0.983-0.092-1.525l0.028-0.027c0.083,0.018,0.202,0.027,0.285,0.027s0.202-0.009,0.285-0.027l0.028,0.027
			c-0.064,0.634-0.092,1.084-0.092,1.525h0.331c0.156,0,0.928-0.009,1.148-0.074c0-1.23-0.11-2.066-0.11-2.066l0.037-0.019
			c0.073,0.009,0.193,0.019,0.285,0.019s0.166-0.009,0.294-0.019l0.027,0.019c-0.018,0.147-0.027,0.358-0.027,0.551v2.214
			c0,0.34,0.027,0.726,0.027,0.726l-0.027,0.009c-0.496-0.083-0.964-0.092-1.644-0.092h-0.937c-0.652,0-1.148,0.009-1.645,0.092
			l-0.027-0.009c0,0,0.027-0.404,0.027-0.726V30.179z"/>
		<path fill="#CED4DC" d="M18.824,26.508l0.027,0.018c-0.009,0.175-0.027,0.432-0.027,0.708c0,0.275,0.019,0.551,0.027,0.716
			l-0.027,0.009c-0.496-0.083-0.964-0.092-1.644-0.092h-0.937c-0.652,0-1.148,0.009-1.645,0.092l-0.027-0.019
			c0.018-0.174,0.027-0.422,0.027-0.698c0-0.267-0.027-1.185-0.027-1.599c0-1.304,0.67-1.543,1.148-1.543
			c0.414,0,1.02,0.156,1.295,0.79c0.239-0.175,0.496-0.349,0.753-0.515c0.404-0.257,0.781-0.505,1.056-0.753l0.027,0.018
			c-0.027,0.175-0.027,0.515-0.027,0.689c0,0.166,0,0.616,0.027,0.781c-0.285,0.101-0.68,0.34-0.937,0.496
			c-0.257,0.166-0.524,0.331-0.763,0.505c-0.009,0.184-0.009,0.349-0.027,0.487h0.174C17.988,26.6,18.3,26.591,18.824,26.508z
			 M16.748,26.6c0.019-0.166,0.019-0.248,0.019-0.432c0-0.551-0.248-0.79-0.956-0.79c-0.79,0-0.854,0.331-0.854,0.836
			c0,0.128,0.027,0.275,0.073,0.386H16.748z"/>
		<path fill="#CED4DC" d="M18.098,21.211c0-1.231-0.11-1.975-0.11-1.975l0.037-0.019c0.074,0.009,0.193,0.019,0.285,0.019
			c0.092,0,0.386-0.009,0.514-0.019l0.027,0.019c-0.018,0.147-0.027,0.358-0.027,0.551v2.141c0,0.34,0.019,0.523,0.027,0.707
			l-0.027,0.009c-0.496-0.083-0.964-0.092-1.644-0.092h-0.937c-0.652,0-1.148,0.009-1.645,0.092l-0.027-0.009
			c0.009-0.184,0.027-0.422,0.027-0.698c0-0.275-0.018-0.542-0.027-0.726l0.027-0.018c0.524,0.083,0.956,0.092,1.645,0.092h0.937
			C17.327,21.285,17.877,21.275,18.098,21.211z"/>
		<path fill="#CED4DC" d="M18.851,17.926c-0.018,0.083-0.027,0.321-0.027,0.395c0,0.074,0.009,0.377,0.027,0.459
			c-1.46-0.67-2.875-1.313-4.345-1.947V15.96c1.452-0.57,3.674-1.479,4.345-1.81c-0.018,0.11-0.027,0.735-0.027,0.845
			c0,0.11,0.009,0.478,0.027,0.588c-0.147,0.028-0.588,0.166-1.341,0.45c-0.019,0.257-0.019,0.432-0.019,0.698
			c0,0.239,0.009,0.487,0.019,0.735C18.024,17.668,18.521,17.843,18.851,17.926z M15.848,16.704v0.046
			c0.285,0.138,0.744,0.349,1.24,0.551c0.019-0.202,0.019-0.331,0.019-0.542c0-0.22-0.019-0.34-0.019-0.569
			C16.729,16.336,16.316,16.502,15.848,16.704z"/>
		<path fill="#CED4DC" d="M18.851,11.416c-0.018,0.101-0.027,0.551-0.027,0.652s0.009,0.542,0.027,0.652
			c-0.367-0.037-1.212-0.046-1.855-0.046c-0.468,0.275-2.039,1.231-2.425,1.488c0.018-0.119,0.027-0.542,0.027-0.652
			c0-0.11-0.009-0.616-0.027-0.726c0.588-0.294,1.121-0.615,1.699-0.955c-0.523-0.331-1.139-0.708-1.699-1.038
			c0.018-0.083,0.027-0.432,0.027-0.514c0-0.083-0.009-0.248-0.027-0.331c0.873,0.652,1.58,1.204,2.094,1.525
			C17.29,11.471,18.484,11.453,18.851,11.416z"/>
	</g>
	<g>
		<defs>
			<path id="SVGID_3_" d="M511.801,21.472l2.544,8.252h-5.07L511.801,21.472z M493.136,15.295c-3.263,0-6.21,1.324-8.339,3.462
				v-3.232h-27.428v13.771c0,1.399-0.188,2.393-0.564,2.99c-0.367,0.583-0.947,0.876-1.741,0.876c-0.503,0-0.894-0.1-1.164-0.296
				c-0.399-0.303-0.682-0.7-0.847-1.19c-0.169-0.49-0.259-1.242-0.268-2.254l-6.803,0.922c0.125,1.775,0.534,3.268,1.225,4.48
				c0.703,1.199,1.691,2.112,2.971,2.739c1.277,0.626,3.076,0.939,5.402,0.939c2.199,0,4.001-0.475,5.402-1.425
				c1.416-0.949,2.354-2.107,2.813-3.475c0.474-1.368,0.707-3.361,0.707-5.98v-6.428h5.779v17.284h7.257V21.192h5.4
				c-0.981,1.711-1.549,3.693-1.549,5.808c0,6.464,5.259,11.705,11.745,11.705c2.621,0,5.038-0.857,6.991-2.303l-0.783,2.073h6.936
				l1.453-3.79h8.107l1.129,3.79h12.436V23.28l4.492,15.195h5.264l4.508-15.195v15.195h5.813V15.524h-9.33l-3.597,13.965
				l-4.045-13.965h-9.316v20.732l-7.432-20.732H508l-6.728,17.838l-2.866-2.397l-1.458-1.438l0.293-5.856l1.165-0.841l3.843-3.215
				C500.095,16.979,496.813,15.295,493.136,15.295z"/>
		</defs>
		<clipPath id="SVGID_4_">
			<use xlink:href="#SVGID_3_"  overflow="visible"/>
		</clipPath>
		<g clip-path="url(#SVGID_4_)">
			<defs>
				<rect id="SVGID_5_" x="445.982" y="15.295" width="103.592" height="23.473"/>
			</defs>
			<clipPath id="SVGID_6_">
				<use xlink:href="#SVGID_5_"  overflow="visible"/>
			</clipPath>
			
				<ellipse clip-path="url(#SVGID_6_)" fill="none" stroke="#14294F" stroke-width="1.1243" stroke-miterlimit="10" cx="493.112" cy="27.01" rx="6.185" ry="6.164"/>
			
				<ellipse clip-path="url(#SVGID_6_)" fill="none" stroke="#14294F" stroke-width="1.1428" stroke-miterlimit="10" cx="493.112" cy="27.01" rx="8.574" ry="8.545"/>
			
				<ellipse clip-path="url(#SVGID_6_)" fill="none" stroke="#14294F" stroke-width="1.1613" stroke-miterlimit="10" cx="493.113" cy="27.01" rx="10.963" ry="10.925"/>
			
				<ellipse clip-path="url(#SVGID_6_)" fill="none" stroke="#14294F" stroke-width="1.1797" stroke-miterlimit="10" cx="493.111" cy="27.01" rx="13.352" ry="13.307"/>
			
				<ellipse clip-path="url(#SVGID_6_)" fill="none" stroke="#14294F" stroke-width="1.1982" stroke-miterlimit="10" cx="493.112" cy="27.01" rx="15.742" ry="15.687"/>
			
				<ellipse clip-path="url(#SVGID_6_)" fill="none" stroke="#14294F" stroke-width="1.2167" stroke-miterlimit="10" cx="493.112" cy="27.01" rx="18.129" ry="18.07"/>
			
				<ellipse clip-path="url(#SVGID_6_)" fill="none" stroke="#14294F" stroke-width="1.2352" stroke-miterlimit="10" cx="493.111" cy="27.01" rx="20.52" ry="20.452"/>
			
				<ellipse clip-path="url(#SVGID_6_)" fill="none" stroke="#14294F" stroke-width="1.2537" stroke-miterlimit="10" cx="493.112" cy="27.01" rx="22.908" ry="22.832"/>
			
				<ellipse clip-path="url(#SVGID_6_)" fill="none" stroke="#14294F" stroke-width="1.2721" stroke-miterlimit="10" cx="493.111" cy="27.01" rx="25.297" ry="25.214"/>
			
				<ellipse clip-path="url(#SVGID_6_)" fill="none" stroke="#14294F" stroke-width="1.2906" stroke-miterlimit="10" cx="493.111" cy="27.01" rx="27.686" ry="27.594"/>
			
				<ellipse clip-path="url(#SVGID_6_)" fill="none" stroke="#14294F" stroke-width="1.3091" stroke-miterlimit="10" cx="493.112" cy="27.01" rx="30.075" ry="29.974"/>
			
				<ellipse clip-path="url(#SVGID_6_)" fill="none" stroke="#14294F" stroke-width="1.3276" stroke-miterlimit="10" cx="493.112" cy="27.01" rx="32.463" ry="32.356"/>
			
				<ellipse clip-path="url(#SVGID_6_)" fill="none" stroke="#14294F" stroke-width="1.3461" stroke-miterlimit="10" cx="493.112" cy="27.01" rx="34.854" ry="34.738"/>
			
				<ellipse clip-path="url(#SVGID_6_)" fill="none" stroke="#14294F" stroke-width="1.3646" stroke-miterlimit="10" cx="493.112" cy="27.01" rx="37.242" ry="37.119"/>
			
				<ellipse clip-path="url(#SVGID_6_)" fill="none" stroke="#14294F" stroke-width="1.3831" stroke-miterlimit="10" cx="493.11" cy="27.01" rx="39.631" ry="39.5"/>
			
				<ellipse clip-path="url(#SVGID_6_)" fill="none" stroke="#14294F" stroke-width="1.4015" stroke-miterlimit="10" cx="493.112" cy="27.01" rx="42.021" ry="41.88"/>
			
				<ellipse clip-path="url(#SVGID_6_)" fill="none" stroke="#14294F" stroke-width="1.42" stroke-miterlimit="10" cx="493.111" cy="27.01" rx="44.41" ry="44.263"/>
			
				<ellipse clip-path="url(#SVGID_6_)" fill="none" stroke="#14294F" stroke-width="1.4385" stroke-miterlimit="10" cx="493.109" cy="27.01" rx="46.799" ry="46.642"/>
			
				<ellipse clip-path="url(#SVGID_6_)" fill="none" stroke="#14294F" stroke-width="1.457" stroke-miterlimit="10" cx="493.111" cy="27.01" rx="49.188" ry="49.024"/>
			
				<ellipse clip-path="url(#SVGID_6_)" fill="none" stroke="#14294F" stroke-width="1.4754" stroke-miterlimit="10" cx="493.11" cy="27.01" rx="51.577" ry="51.405"/>
			<path clip-path="url(#SVGID_6_)" fill="none" stroke="#14294F" stroke-width="1.4939" stroke-miterlimit="10" d="M439.145,27.01
				c0,29.705,24.161,53.787,53.965,53.787c29.806,0,53.966-24.082,53.966-53.787c0-29.703-24.16-53.783-53.966-53.783
				C463.306-26.773,439.145-2.695,439.145,27.01z"/>
			
				<ellipse clip-path="url(#SVGID_6_)" fill="none" stroke="#14294F" stroke-width="2.3211" stroke-miterlimit="10" cx="492.925" cy="27.01" rx="56.964" ry="56.773"/>
		</g>
	</g>
</g>
<g id="Layer_2" display="none">
	
		<rect x="12.952" y="12.226" display="inline" fill="none" stroke="#E70021" stroke-width="0.25" stroke-miterlimit="10" width="548.666" height="40.003"/>
	
		<rect x="27.401" y="-11.603" display="inline" fill="none" stroke="#D0000C" stroke-width="0.25" stroke-miterlimit="10" width="6.978" height="91"/>
	
		<rect x="34.379" y="-11.603" display="inline" fill="none" stroke="#D0000C" stroke-width="0.25" stroke-miterlimit="10" width="6.978" height="91"/>
</g>
</svg>
